<?xml version="1.0" encoding="UTF-8" standalone="no"?>
<!-- Created with Inkscape (http://www.inkscape.org/) -->

<svg
   xmlns:dc="http://purl.org/dc/elements/1.1/"
   xmlns:cc="http://creativecommons.org/ns#"
   xmlns:rdf="http://www.w3.org/1999/02/22-rdf-syntax-ns#"
   xmlns:svg="http://www.w3.org/2000/svg"
   xmlns="http://www.w3.org/2000/svg"
   version="1.1"
   width="850"
   height="600"
   id="svg2"
   xml:space="preserve"><metadata
     id="metadata8"><rdf:RDF><cc:Work
         rdf:about=""><dc:format>image/svg+xml</dc:format><dc:type
           rdf:resource="http://purl.org/dc/dcmitype/StillImage" /><dc:title></dc:title></cc:Work></rdf:RDF></metadata><defs
     id="defs6"><clipPath
       id="clipPath18"><path
         d="m 720,720 4680,0 0,6480 -4680,0 0,-6480 z"
         id="path20" /></clipPath><clipPath
       id="clipPath28"><path
         d="m 3268.56,787.16 -7.71,55.051 -0.55,60.555 26.42,89.179 65.51,82.025 88.63,29.18 100.19,-13.22 71.02,-67.71 35.23,-78.165 6.61,-79.825 -4.96,-65.507 6.61,-76.52 -13.76,-2.203 -11.57,33.582 -39.63,23.672 -267.54,-1.652 -41.84,-22.02 0,-27.527 -14.86,-0.551 2.2,61.656 z m 18.71,35.235 276.91,-2.204 41.28,9.911 34.68,47.89 -9.91,74.867 -42.93,53.951 -65.51,27.53 -93.04,1.65 -81.47,-30.28 -47.89,-69.362 -22.02,-75.969 1.65,-53.399 8.25,15.415 z m 197.63,452.505 -33.58,-1.1 -25.32,-13.76 -12.66,-34.13 28.62,-32.48 20.37,14.31 23.67,-28.62 -24.77,-27.53 -64.96,71.57 -3.3,55.6 52.85,35.23 149.73,-5.51 35.24,25.32 -1.11,13.22 12.12,2.75 11.56,-53.95 -22.57,-23.67 -14.32,7.71 26.43,-30.83 11.01,-45.69 -26.43,-52.3 -73.21,-4.4 -32.48,40.18 -33.03,101.84 -3.86,-13.76 z m 60.01,-90.28 55.05,-1.1 24.77,30.28 2.75,31.93 -23.12,30.82 -96.89,-4.4 37.44,-87.53 z m -142.03,258.18 1.1,40.74 29.18,3.3 2.75,-47.34 105.7,0.55 68.26,6.61 18.71,14.86 -9.9,26.43 11.55,3.85 26.43,-35.78 -10.46,-43.49 -43.49,-14.32 -162.4,2.21 -7.15,13.21 0.55,-46.79 -9.36,-6.06 -75.42,74.87 1.65,11.01 52.3,-3.86 z m 82.02,200.39 -33.58,-1.1 -25.32,-13.77 -12.66,-34.13 28.62,-32.48 20.37,14.31 23.67,-28.62 -24.77,-27.52 -64.96,71.56 -3.3,55.6 52.85,35.23 149.73,-5.5 35.24,25.32 -1.11,13.21 12.12,2.75 11.56,-53.94 -22.57,-23.68 -14.32,7.71 26.43,-30.83 11.01,-45.69 -26.43,-52.3 -73.21,-4.4 -32.48,40.19 -33.03,101.84 -3.86,-13.76 z m 60.01,-90.28 55.05,-1.11 24.77,30.28 2.75,31.93 -23.12,30.83 -96.89,-4.41 37.44,-87.52 z m -278,429.38 -4.96,53.95 15.97,2.76 9.35,-17.07 240.02,95.78 53.95,19.83 -66.06,19.26 -218.55,92.49 -29.72,-11.57 -7.71,6.61 9.36,49.55 -5.51,56.7 15.42,0 0.55,-17.62 38.53,-30.83 280.75,22.02 35.24,20.92 4.4,31.93 12.67,1.1 -3.31,-88.63 6.61,-68.26 -14.87,-3.85 -3.85,26.97 -41.29,31.93 -224.6,-16.51 -48.44,-2.76 49.54,-17.61 292.87,-113.96 -137.63,-62.21 -139.83,-61.65 -50.09,-13.21 77.07,-4.4 185.51,-13.22 29.18,18.72 10.46,33.58 14.86,-1.1 -8.25,-63.31 9.36,-68.26 -17.62,-3.85 -2.75,28.07 -35.24,26.97 -266.98,31.93 -45.69,-21.46 -8.81,-28.63 -17.62,2.2 7.71,56.7 z m 154.14,416.73 -12.67,40.74 -19.81,35.23 6.6,9.91 216.35,-8.81 23.67,19.27 9.36,15.96 10.46,-1.65 -7.16,-51.2 2.76,-59.45 -14.32,2.75 -2.75,23.12 -28.08,14.87 -151.94,-4.96 -23.66,-20.37 3.3,-11 -12.11,-4.41 z m -178.92,57.25 40.19,30.28 30.28,-36.33 -33.58,-27.53 -36.89,33.58 z m 181.67,82.03 -12.11,39.08 -23.12,30.28 6.05,7.16 41.84,-5.51 -26.42,35.23 -19.82,66.61 26.97,47.35 53.4,13.21 146.43,-2.75 20.92,17.61 3.31,7.71 11,0.55 -4.95,-46.79 6.06,-50.1 -13.77,-1.65 -4.4,18.72 -23.67,14.86 -141.48,-0.55 -45.69,-26.43 -2.75,-43.48 31.38,-67.71 -1.1,15.96 161.29,0.55 23.12,15.97 3.85,20.91 8.81,-1.65 -1.1,-57.8 1.65,-45.69 -9.36,-3.31 -6.6,17.07 -27.53,15.42 -152.49,0 -23.11,-19.83 2.75,-6.6 -9.36,-4.4 z m -2.75,276.9 -12.67,40.73 -19.81,35.23 6.6,9.91 216.35,-8.8 23.67,19.27 9.36,15.96 10.46,-1.65 -7.16,-51.2 2.76,-59.45 -14.32,2.75 -2.75,23.12 -28.08,14.86 -151.94,-4.95 -23.66,-20.37 3.3,-11.01 -12.11,-4.4 z m -178.92,57.25 40.19,30.28 30.28,-36.34 -33.58,-27.52 -36.89,33.58 z m 181.67,82.02 -12.11,39.09 -23.12,30.28 6.05,7.15 41.84,-5.5 -26.42,35.23 -19.82,66.61 26.97,47.34 53.4,13.21 146.43,-2.75 20.92,17.62 3.31,7.71 11,0.54 -4.95,-46.79 6.06,-50.09 -13.77,-1.66 -4.4,18.72 -23.67,14.87 -141.48,-0.55 -45.69,-26.43 -2.75,-43.49 31.38,-67.71 -1.1,15.97 161.29,0.55 23.12,15.96 3.85,20.92 8.81,-1.65 -1.1,-57.8 1.65,-45.69 -9.36,-3.31 -6.6,17.07 -27.53,15.41 -152.49,0 -23.11,-19.82 2.75,-6.6 -9.36,-4.41 z m 145.88,352.87 31.38,-28.62 33.58,18.71 19.82,151.94 50.09,28.63 52.85,-31.38 25.87,-74.87 -1.1,-84.23 -13.21,-40.73 -66.61,-9.36 1.65,15.96 45.7,26.98 22.01,56.15 -13.76,64.96 -66.61,31.93 -20.37,-5.51 -12.66,-166.25 -36.88,-25.32 -39.09,31.93 -19.82,25.32 -29.17,-32.48 -56.71,-17.62 -63.85,28.08 -24.77,53.4 3.3,62.75 17.06,26.98 -9.9,74.87 31.38,-1.65 -4.96,-62.21 33.03,16.51 57.25,-5.5 42.94,-31.38 17.06,-63.31 -5.5,-34.68 z m -19.27,73.77 -32.48,17.62 -60,0 -53.4,-35.79 -6.6,-28.62 16.51,-32.48 55.6,-18.72 50.1,8.81 36.33,29.18 4.4,25.87 -10.46,34.13 z"
         id="path30" /></clipPath><clipPath
       id="clipPath38"><path
         d="m 2841.52,1945.59 -2.64,29.06 8.92,62.1 32.37,28.73 35.35,-1.64 24.77,-22.46 8.58,-34.36 2.64,20.81 8.92,22.79 24.11,23.12 27.42,7.27 33.69,-12.22 26.76,-41.95 2.31,-118.91 -11.56,3.3 -3.3,15.86 -21.47,13.21 -168.46,-2.31 -18.5,-11.89 -3.3,-15.53 -8.26,-0.99 1.65,36.01 z m 119.25,20.14 84.22,1.66 20.47,17.17 0.67,23.45 -10.9,27.75 -20.81,13.54 -32.37,0.66 -29.4,-19.48 -15.52,-35.02 0,-34.02 3.64,4.29 z m -109.34,3.31 97.44,0 -0.66,25.76 -10.57,26.42 -19.48,17.84 -33.03,-1.32 -27.09,-21.13 -12.88,-30.72 1.98,-26.43 4.29,9.58 z m 120.9,218.32 -20.16,-0.65 -15.19,-8.26 -7.59,-20.48 17.17,-19.49 12.22,8.59 14.2,-17.18 -14.86,-16.51 -38.98,42.94 -1.98,33.35 31.71,21.15 89.84,-3.31 21.15,15.19 -0.66,7.93 7.26,1.66 6.93,-32.37 -13.53,-14.21 -8.6,4.63 15.86,-18.5 6.6,-27.42 -15.85,-31.38 -43.93,-2.64 -19.49,24.11 -19.82,61.11 -2.3,-8.26 z m 35.99,-54.16 33.04,-0.66 14.86,18.16 1.65,19.16 -13.87,18.5 -58.13,-2.65 22.45,-52.51 z m -86.2,134.09 -3.96,29.73 7.59,1 1.65,-10.91 12.23,-4.29 98.09,34.35 13.88,1.65 -105.7,35.01 -17.51,-6.61 -0.99,-10.23 -9.24,2.64 3.96,23.78 -3.64,24.44 8.26,1 4.96,-14.54 15.52,-9.58 184.97,-68.04 19.49,-27.75 -16.85,-15.51 -16.52,15.51 11.9,12.89 -5.29,9.24 -44.59,17.51 -136.08,-50.86 -13.87,-8.26 -3.64,-9.91 -6.61,0.33 1.99,27.41 z m -5.62,180.35 2.64,33.03 18.5,25.42 43.27,9.91 11.23,-108.66 3.63,12.87 5.62,-1.64 31.38,14.2 21.47,34.02 -6.61,30.06 -20.8,15.85 7.92,5.95 32.37,-32.04 7.26,-29.72 -12.87,-39.32 -46.9,-26.08 -54.18,8.58 -34.02,26.75 -9.91,20.82 z m 55.16,40.95 -33.69,-6.27 -14.2,-24.44 6.27,-20.81 13.88,-12.89 37.65,-4.29 -9.91,68.7 z m -10.89,130.47 -1,-6.28 -21.8,-6.93 -13.21,-19.49 4.29,-18.17 19.16,-8.26 19.82,7.93 39.31,51.86 24.44,6.27 29.06,-13.21 12.55,-29.73 -3.3,-33.35 -9.25,-15.2 -37.98,-1.98 1.98,5.94 26.42,9.58 14.2,21.8 -5.6,25.11 -29.07,7.26 -20.15,-15.19 -27.41,-44.26 -30.72,-6.28 -24.77,14.2 -10.91,26.77 1,14.86 9.91,25.76 33.03,0.99 z m -26.76,27.08 -7.6,24.45 -11.89,21.13 3.96,5.95 129.82,-5.29 14.2,11.56 5.61,9.58 6.27,-0.98 -4.29,-30.73 1.65,-35.67 -8.58,1.65 -1.65,13.87 -16.85,8.93 -91.16,-2.98 -14.2,-12.22 1.98,-6.61 -7.27,-2.64 z m -107.35,34.35 24.11,18.17 18.17,-21.8 -20.15,-16.52 -22.13,20.15 z m 145.67,128.81 -20.16,-0.65 -15.19,-8.26 -7.59,-20.48 17.17,-19.49 12.22,8.6 14.2,-17.18 -14.86,-16.52 -38.98,42.94 -1.98,33.36 31.71,21.14 89.84,-3.3 21.15,15.19 -0.66,7.93 7.26,1.65 6.93,-32.37 -13.53,-14.21 -8.6,4.63 15.86,-18.49 6.6,-27.43 -15.85,-31.37 -43.93,-2.64 -19.49,24.11 -19.82,61.1 -2.3,-8.26 z m 35.99,-54.16 33.04,-0.66 14.86,18.16 1.65,19.16 -13.87,18.5 -58.13,-2.65 22.45,-52.51 z m -72.66,112.3 -7.27,23.45 -13.87,18.16 3.64,4.3 25.09,-3.3 -15.85,21.13 -11.88,39.98 16.18,28.4 32.03,7.93 87.87,-1.65 12.55,10.56 1.98,4.63 6.6,0.33 -2.96,-28.08 3.62,-30.06 -8.25,-0.99 -2.64,11.23 -14.2,8.92 -84.89,-0.33 -27.42,-15.85 -1.65,-26.1 18.82,-40.62 -0.65,9.57 96.78,0.34 13.87,9.57 2.3,12.56 5.29,-1 -0.66,-34.68 0.99,-27.41 -5.62,-1.98 -3.95,10.23 -16.52,9.25 -91.49,0 -13.87,-11.89 1.65,-3.96 -5.62,-2.64 z m -78.28,307.51 -21.8,34.68 -0.66,39.96 14.86,32.37 49.88,-3.64 0,-5.61 -40.3,-10.57 -14.86,-27.42 5.28,-32.69 36.67,-13.87 30.05,13.21 37.99,55.16 34.68,31.04 41.95,0.99 31.38,-25.1 14.52,-36.66 -3.3,-40.3 -14.86,-34.02 -54.5,-8.91 -3.96,5.28 35.34,13.21 27.42,30.71 0.99,37 -24.77,27.75 -37.33,-4.29 -33.69,-41.29 -34.02,-42.29 -37.66,-7.59 -39.3,12.89 z m 59.12,190.25 2.64,33.03 18.5,25.42 43.27,9.91 11.23,-108.66 3.63,12.87 5.62,-1.65 31.38,14.21 21.47,34.02 -6.61,30.06 -20.8,15.85 7.92,5.95 32.37,-32.04 7.26,-29.73 -12.87,-39.31 -46.9,-26.09 -54.18,8.59 -34.02,26.75 -9.91,20.82 z m 55.16,40.95 -33.69,-6.27 -14.2,-24.45 6.27,-20.8 13.88,-12.89 37.65,-4.29 -9.91,68.7 z m -35.67,182.99 188.93,-1.99 18.5,5.94 3.3,12.56 6.94,0 -3.31,-32.7 4.29,-35.01 -7.59,0.33 -6.27,17.5 -17.84,7.93 -65.73,-1.65 16.51,-34.68 -3.95,-38.98 -35.02,-33.69 -51.86,-4.95 -46.9,30.71 -17.51,36.01 0.66,36.66 14.2,26.42 -18.82,8.59 2.64,6.94 18.83,-5.94 z m 107.35,-25.44 -75.97,0 -25.1,-7.27 -14.87,-30.72 8.26,-29.72 35.02,-17.51 46.57,0.99 33.35,22.79 9.26,33.03 -13.22,34.35 -3.3,-5.94 z m -122.87,53.18 2.31,23.78 -4.62,22.78 110.32,0.34 27.41,18.17 0,27.08 -17.5,27.42 -3.97,-5.62 -90.5,-0.67 -12.22,-9.24 -2.31,-13.21 -8.26,-1.33 1.98,24.78 -4.63,29.07 71.02,-2.65 60.45,-0.33 7.92,8.92 -1.98,10.24 8.26,-0.99 1.31,-21.47 9.26,-22.79 -26.1,-1 17.51,-26.08 6.6,-31.72 -16.51,-30.05 -60.12,-4.95 -51.19,0 -12.55,-10.25 -2.97,-8.26 -8.92,-1.97 z m -3.97,227.57 2.64,33.03 18.5,25.43 43.27,9.91 11.23,-108.67 3.63,12.88 5.62,-1.65 31.38,14.21 21.47,34.02 -6.61,30.05 -20.8,15.85 7.92,5.95 32.37,-32.03 7.26,-29.73 -12.87,-39.31 -46.9,-26.09 -54.18,8.59 -34.02,26.75 -9.91,20.81 z m 55.16,40.95 -33.69,-6.27 -14.2,-24.44 6.27,-20.81 13.88,-12.88 37.65,-4.3 -9.91,68.7 z m -36,44.59 -7.27,23.45 -13.87,18.17 3.64,4.3 25.09,-3.3 -15.85,21.13 -11.88,39.97 16.18,28.4 32.03,7.93 87.87,-1.65 12.55,10.56 1.98,4.63 6.6,0.33 -2.96,-28.08 3.62,-30.05 -8.25,-0.99 -2.64,11.23 -14.2,8.92 -84.89,-0.33 -27.42,-15.85 -1.65,-26.1 18.82,-40.62 -0.65,9.57 96.78,0.33 13.87,9.58 2.3,12.55 5.29,-0.99 -0.66,-34.69 0.99,-27.41 -5.62,-1.98 -3.95,10.24 -16.52,9.25 -91.49,0 -13.87,-11.89 1.65,-3.97 -5.62,-2.64 z m -12.55,211.06 0.66,24.44 17.51,1.99 1.65,-28.41 63.42,0.33 40.95,3.96 11.23,8.92 -5.94,15.85 6.93,2.32 15.86,-21.47 -6.28,-26.09 -26.09,-8.59 -97.44,1.32 -4.29,7.92 0.32,-28.07 -5.61,-3.63 -45.25,44.91 0.99,6.61 31.38,-2.31 z m 10.9,38.31 -7.6,24.45 -11.89,21.13 3.96,5.95 129.82,-5.28 14.2,11.55 5.61,9.59 6.27,-0.99 -4.29,-30.72 1.65,-35.68 -8.58,1.66 -1.65,13.87 -16.85,8.92 -91.16,-2.98 -14.2,-12.22 1.98,-6.61 -7.27,-2.64 z m -107.35,34.36 24.11,18.16 18.17,-21.8 -20.15,-16.51 -22.13,20.15 z m 145.67,128.81 -20.16,-0.65 -15.19,-8.26 -7.59,-20.48 17.17,-19.5 12.22,8.6 14.2,-17.18 -14.86,-16.51 -38.98,42.93 -1.98,33.36 31.71,21.14 89.84,-3.3 21.15,15.19 -0.66,7.93 7.26,1.65 6.93,-32.36 -13.53,-14.21 -8.6,4.62 15.86,-18.49 6.6,-27.42 -15.85,-31.38 -43.93,-2.64 -19.49,24.11 -19.82,61.11 -2.3,-8.26 z m 35.99,-54.17 33.04,-0.66 14.86,18.17 1.65,19.15 -13.87,18.51 -58.13,-2.65 22.45,-52.52 z m -175.71,116.27 -3.64,19.16 -10.23,16.18 3.3,7.6 157.22,-6.61 69.36,1.65 14.54,9.91 1.98,11.56 8.25,0 -4.29,-33.03 2.64,-33.69 -8.58,-0.33 -0.66,12.55 -19.49,9.58 -190.92,-1.32 -10.23,-11.23 -9.25,-1.98 z m 11.23,224.26 -4.29,59.46 9.57,-2.97 1.65,-22.13 16.52,-15.2 178.36,-2.3 14.21,11.22 -1,71.01 -17.5,22.8 -32.37,13.21 1.97,10.9 63.42,-19.16 -4.29,-76.3 3.3,-94.47 -9.24,-0.32 -0.67,14.53 -17.83,17.5 -179.02,-0.99 -16.51,-15.85 0,-16.51 -12.23,0.66 5.95,44.91 z m 72.66,210.41 2.64,33.03 18.5,25.42 43.27,9.91 11.23,-108.66 3.63,12.88 5.62,-1.66 31.38,14.21 21.47,34.02 -6.61,30.06 -20.8,15.85 7.92,5.95 32.37,-32.04 7.26,-29.73 -12.87,-39.31 -46.9,-26.09 -54.18,8.59 -34.02,26.75 -9.91,20.82 z m 55.16,40.95 -33.69,-6.27 -14.2,-24.45 6.27,-20.8 13.88,-12.89 37.65,-4.29 -9.91,68.7 z m 0.67,124.19 -20.16,-0.65 -15.19,-8.26 -7.59,-20.48 17.17,-19.5 12.22,8.6 14.2,-17.18 -14.86,-16.51 -38.98,42.93 -1.98,33.36 31.71,21.14 89.84,-3.3 21.15,15.19 -0.66,7.93 7.26,1.65 6.93,-32.36 -13.53,-14.21 -8.6,4.62 15.86,-18.49 6.6,-27.42 -15.85,-31.38 -43.93,-2.64 -19.49,24.11 -19.82,61.11 -2.3,-8.26 z m 35.99,-54.17 33.04,-0.66 14.86,18.17 1.65,19.15 -13.87,18.5 -58.13,-2.64 22.45,-52.52 z m -73.32,113.62 -4.96,17.51 -13.86,20.48 3.95,4.29 28.08,-2.64 19.82,-4.95 -40.63,27.74 -10.24,20.48 19.49,17.18 19.49,-19.16 -14.86,-12.89 14.86,-20.14 27.09,-6.61 62.42,-0.66 14.86,10.24 4.95,18.16 5.62,0.34 -2.97,-38.65 4.3,-31.38 -6.95,-0.33 -3.95,12.22 -17.51,7.93 -90.84,-2.98 -11.56,-10.89 0,-4.96 -6.6,-0.33 z m 0.66,109 -7.27,23.45 -13.87,18.16 3.64,4.3 25.09,-3.3 -15.85,21.14 -11.88,39.97 16.18,28.4 32.03,7.93 87.87,-1.65 12.55,10.56 1.98,4.63 6.6,0.32 -2.96,-28.07 3.62,-30.05 -8.25,-0.99 -2.64,11.22 -14.2,8.92 -84.89,-0.33 -27.42,-15.85 -1.65,-26.1 18.82,-40.62 -0.65,9.57 96.78,0.34 13.87,9.57 2.3,12.56 5.29,-1 -0.66,-34.68 0.99,-27.41 -5.62,-1.98 -3.95,10.24 -16.52,9.24 -91.49,0 -13.87,-11.88 1.65,-3.97 -5.62,-2.64 z m -1.65,166.14 -7.6,24.44 -11.89,21.14 3.96,5.95 129.82,-5.29 14.2,11.56 5.61,9.58 6.27,-0.99 -4.29,-30.72 1.65,-35.67 -8.58,1.65 -1.65,13.87 -16.85,8.92 -91.16,-2.97 -14.2,-12.23 1.98,-6.6 -7.27,-2.64 z m -107.35,34.35 24.11,18.17 18.17,-21.81 -20.15,-16.51 -22.13,20.15 z m 109,49.21 -7.27,23.45 -13.87,18.17 3.64,4.3 25.09,-3.31 -15.85,21.14 -11.88,39.97 16.18,28.4 32.03,7.93 87.87,-1.65 12.55,10.56 1.98,4.63 6.6,0.33 -2.96,-28.08 3.62,-30.05 -8.25,-0.99 -2.64,11.22 -14.2,8.93 -84.89,-0.33 -27.42,-15.85 -1.65,-26.1 18.82,-40.63 -0.65,9.58 96.78,0.33 13.87,9.57 2.3,12.56 5.29,-0.99 -0.66,-34.68 0.99,-27.42 -5.62,-1.98 -3.95,10.24 -16.52,9.25 -91.49,0 -13.87,-11.89 1.65,-3.97 -5.62,-2.64 z m 87.53,211.72 18.83,-17.17 20.14,11.22 11.9,91.17 30.05,17.17 31.71,-18.82 15.52,-44.93 -0.65,-50.53 -7.93,-24.44 -39.96,-5.61 0.99,9.57 27.41,16.19 13.21,33.69 -8.26,38.97 -39.96,19.16 -12.23,-3.3 -7.59,-99.76 -22.13,-15.19 -23.45,19.16 -11.9,15.19 -17.5,-19.48 -34.02,-10.57 -38.32,16.84 -14.86,32.04 1.99,37.66 10.23,16.17 -5.94,44.93 18.83,-0.99 -2.98,-37.33 19.82,9.91 34.35,-3.3 25.76,-18.82 10.24,-37.98 -3.3,-20.82 z m -11.56,44.26 -19.49,10.57 -36,0 -32.04,-21.47 -3.97,-17.17 9.91,-19.5 33.37,-11.22 30.05,5.28 21.81,17.51 2.64,15.52 -6.28,20.48 z"
         id="path40" /></clipPath><clipPath
       id="clipPath48"><path
         d="m 3316,4212.02 -3.07,33.91 10.4,72.44 37.76,33.53 41.24,-1.93 28.9,-26.2 10.01,-40.08 3.09,24.28 10.4,26.59 28.13,26.97 31.98,8.48 39.32,-14.26 31.21,-48.94 2.69,-138.73 -13.49,3.86 -3.85,18.5 -25.05,15.41 -196.53,-2.7 -21.58,-13.87 -3.85,-18.11 -9.63,-1.16 1.92,42.01 z m 139.12,23.5 98.26,1.93 23.9,20.04 0.76,27.36 -12.71,32.36 -24.28,15.81 -37.76,0.76 -34.3,-22.73 -18.11,-40.85 0,-39.69 4.24,5.01 z m -127.56,3.85 113.68,0 -0.76,30.06 -12.34,30.83 -22.73,20.81 -38.53,-1.54 -31.61,-24.66 -15.02,-35.84 2.31,-30.83 5,11.17 z m 141.05,254.72 -23.51,-0.77 -17.72,-9.64 -8.87,-23.88 20.04,-22.75 14.25,10.02 16.58,-20.03 -17.34,-19.27 -45.48,50.1 -2.31,38.92 36.99,24.66 104.82,-3.85 24.66,17.72 -0.76,9.25 8.47,1.93 8.09,-37.77 -15.8,-16.57 -10.02,5.4 18.5,-21.58 7.71,-31.98 -18.5,-36.61 -51.25,-3.09 -22.73,28.14 -23.13,71.29 -2.69,-9.64 z m 42,-63.2 38.53,-0.77 17.34,21.2 1.93,22.34 -16.18,21.59 -67.82,-3.09 26.2,-61.27 z m -100.57,156.46 -4.63,34.68 8.86,1.15 1.93,-12.72 14.26,-5.01 114.45,40.09 16.18,1.92 -123.31,40.84 -20.42,-7.71 -1.16,-11.93 -10.79,3.07 4.63,27.75 -4.24,28.52 9.63,1.15 5.78,-16.95 18.11,-11.18 215.79,-79.38 22.74,-32.37 -19.65,-18.11 -19.27,18.11 13.87,15.03 -6.16,10.79 -52.02,20.43 -158.77,-59.35 -16.18,-9.63 -4.24,-11.56 -7.71,0.38 2.32,31.99 z m -6.56,210.39 3.08,38.54 21.58,29.67 50.49,11.56 13.1,-126.78 4.23,15.03 6.56,-1.92 36.61,16.56 25.05,39.7 -7.71,35.06 -24.28,18.5 9.24,6.93 37.77,-37.37 8.48,-34.68 -15.03,-45.87 -54.72,-30.44 -63.2,10.02 -39.69,31.22 -11.56,24.27 z m 64.36,47.78 -39.31,-7.32 -16.57,-28.51 7.32,-24.28 16.18,-15.03 43.94,-5 -11.56,80.14 z m -12.72,152.22 -1.16,-7.32 -25.43,-8.1 -15.42,-22.73 5.01,-21.19 22.36,-9.64 23.12,9.25 45.85,60.5 28.51,7.32 33.92,-15.41 14.64,-34.68 -3.85,-38.92 -10.79,-17.73 -44.31,-2.32 2.3,6.94 30.83,11.18 16.58,25.43 -6.56,29.29 -33.91,8.48 -23.51,-17.73 -31.98,-51.64 -35.84,-7.32 -28.9,16.57 -12.71,31.21 1.15,17.34 11.56,30.07 38.54,1.15 z m -31.22,31.59 -8.86,28.53 -13.87,24.66 4.63,6.93 151.43,-6.17 16.58,13.49 6.55,11.18 7.32,-1.16 -5.01,-35.83 1.92,-41.63 -10.02,1.93 -1.92,16.19 -19.66,10.41 -106.35,-3.48 -16.57,-14.25 2.31,-7.71 -8.48,-3.09 z m -125.24,40.09 28.14,21.19 21.19,-25.43 -23.51,-19.27 -25.82,23.51 z m 169.95,150.28 -23.51,-0.77 -17.72,-9.64 -8.87,-23.88 20.04,-22.75 14.25,10.02 16.58,-20.03 -17.34,-19.27 -45.48,50.1 -2.31,38.91 36.99,24.67 104.82,-3.85 24.66,17.72 -0.76,9.25 8.47,1.93 8.09,-37.77 -15.8,-16.57 -10.02,5.4 18.5,-21.58 7.71,-31.98 -18.5,-36.61 -51.25,-3.09 -22.73,28.14 -23.13,71.29 -2.69,-9.64 z m 42,-63.2 38.53,-0.77 17.34,21.2 1.93,22.34 -16.18,21.58 -67.82,-3.08 26.2,-61.27 z m -84.78,131.02 -8.47,27.36 -16.19,21.19 4.24,5.01 29.29,-3.85 -18.5,24.66 -13.87,46.63 18.88,33.14 37.37,9.25 102.51,-1.93 14.64,12.33 2.31,5.4 7.71,0.38 -3.47,-32.75 4.24,-35.07 -9.63,-1.15 -3.08,13.1 -16.58,10.4 -99.03,-0.38 -31.99,-18.5 -1.92,-30.44 21.97,-47.4 -0.78,11.17 112.91,0.39 16.18,11.18 2.71,14.64 6.16,-1.15 -0.77,-40.47 1.15,-31.99 -6.54,-2.3 -4.63,11.93 -19.27,10.8 -106.74,0 -16.18,-13.87 1.92,-4.63 -6.55,-3.08 z m -109.83,424.27 -1.15,92.1 28.9,-6.94 32.76,2.31 0.77,-7.71 -36.61,-7.7 -15.03,-31.22 3.09,-84.39 1.54,13.88 109.05,0.38 -1.93,59.34 -16.18,23.51 -23.51,6.17 3.47,9.25 45.09,-5.78 42.38,3.85 0.77,-10.79 -20.03,-4.62 -1.54,-0.39 -13.88,-25.82 0,-63.2 8.48,9.25 80.15,-1.54 28.13,23.12 5.01,33.14 -6.55,40.46 -31.22,28.91 -38.53,5.77 4.24,10.03 38.92,-5.02 43.93,-13.87 -1.93,-133.33 3.47,-62.43 -10.02,2.32 -8.86,26.2 -28.9,12.72 -189.97,-1.93 -25.83,-15.41 0,-19.27 -10.78,0.77 2.3,97.88 z m 109.83,134.48 -8.47,27.37 -16.19,21.19 4.24,5.01 29.29,-3.86 -18.5,24.66 -13.87,46.63 18.88,33.14 37.37,9.25 102.51,-1.93 14.64,12.34 2.31,5.39 7.71,0.39 -3.47,-32.76 4.24,-35.07 -9.63,-1.15 -3.08,13.1 -16.58,10.4 -99.03,-0.38 -31.99,-18.5 -1.92,-30.44 21.97,-47.39 -0.78,11.17 112.91,0.38 16.18,11.18 2.71,14.64 6.16,-1.15 -0.77,-40.47 1.15,-31.98 -6.54,-2.31 -4.63,11.94 -19.27,10.8 -106.74,0 -16.18,-13.88 1.92,-4.63 -6.55,-3.08 z m 29.29,296.72 -1.16,-7.32 -25.43,-8.09 -15.42,-22.74 5.01,-21.19 22.36,-9.63 23.12,9.24 45.85,60.51 28.51,7.32 33.92,-15.42 14.64,-34.68 -3.85,-38.92 -10.79,-17.73 -44.31,-2.31 2.3,6.94 30.83,11.17 16.58,25.43 -6.56,29.29 -33.91,8.48 -23.51,-17.73 -31.98,-51.64 -35.84,-7.32 -28.9,16.57 -12.71,31.22 1.15,17.34 11.56,30.06 38.54,1.15 z m -51.64,95.56 3.08,38.54 21.58,29.68 50.49,11.55 13.1,-126.77 4.23,15.02 6.56,-1.92 36.61,16.56 25.05,39.7 -7.71,35.06 -24.28,18.5 9.24,6.94 37.77,-37.38 8.48,-34.68 -15.03,-45.86 -54.72,-30.44 -63.2,10.02 -39.69,31.21 -11.56,24.27 z m 64.36,47.79 -39.31,-7.32 -16.57,-28.52 7.32,-24.27 16.18,-15.03 43.94,-5.01 -11.56,80.15 z m -53.57,77.84 -13.49,14.64 -1.54,5.79 23.51,0.77 18.49,-8.09 -20.81,22.34 -15.02,36.22 5.78,37.77 24.66,18.49 -20.81,24.28 -11.95,36.23 11.18,34.29 36.23,16.57 99.8,0 20.42,6.16 6.17,12.34 8.48,2.69 -3.85,-32.75 3.85,-44.7 -8.48,0 -3.08,19.65 -23.9,10.02 -88.24,-3.08 -31.21,-16.18 -0.39,-44.32 21.97,-32.76 -2.32,12.73 102.51,0.76 17.34,5.01 4.24,14.26 9.63,0 -1.92,-32.76 4.23,-39.68 -8.86,1.92 -2.32,11.17 -16.18,13.11 -105.59,-2.32 -23.5,-21.19 1.16,-42.39 22.73,-28.13 -2.31,11.57 103.28,-1.16 17.34,9.25 3.07,15.03 12.34,1.54 -5.39,-37.77 3.85,-35.84 -7.33,-2.3 -3.47,12.32 -15.41,12.72 -114.44,-3.08 -13.11,-16.57 -7.32,-3.09 -10.02,28.52 z m -106.35,276.68 -3.47,22.35 -15.8,27.36 6.16,4.63 49.72,-5.79 83.61,-1.16 -22.73,43.94 6.93,58.95 60.12,28.52 61.65,-6.17 37.39,-32.75 16.56,-53.18 -16.56,-77.45 -10.41,11.94 -228.13,-0.77 -15.41,-10.01 0,-8.48 -9.63,-1.93 z m 134.48,45.85 84.01,-0.38 36.99,14.65 13.49,34.68 -14.64,38.14 -44.32,18.12 -58.57,-7.33 -31.98,-31.21 -3.09,-42.77 15.03,-31.22 3.08,7.32 z m -136.79,160.31 -4.25,22.35 -11.94,18.88 3.85,8.87 183.43,-7.71 80.92,1.93 16.95,11.56 2.32,13.49 9.63,0 -5,-38.54 3.07,-39.31 -10.02,-0.38 -0.76,14.64 -22.74,11.18 -222.73,-1.54 -11.95,-13.11 -10.78,-2.31 z m 97.87,144.89 3.08,38.54 21.58,29.67 50.49,11.56 13.1,-126.78 4.23,15.03 6.56,-1.93 36.61,16.57 25.05,39.7 -7.71,35.05 -24.28,18.51 9.24,6.93 37.77,-37.37 8.48,-34.69 -15.03,-45.86 -54.72,-30.44 -63.2,10.02 -39.69,31.22 -11.56,24.27 z m 64.36,47.78 -39.31,-7.32 -16.57,-28.51 7.32,-24.28 16.18,-15.03 43.94,-5.01 -11.56,80.15 z m -12.72,152.22 -1.16,-7.32 -25.43,-8.1 -15.42,-22.73 5.01,-21.2 22.36,-9.63 23.12,9.25 45.85,60.5 28.51,7.32 33.92,-15.41 14.64,-34.68 -3.85,-38.93 -10.79,-17.73 -44.31,-2.31 2.3,6.94 30.83,11.17 16.58,25.44 -6.56,29.29 -33.91,8.47 -23.51,-17.73 -31.98,-51.63 -35.84,-7.32 -28.9,16.57 -12.71,31.21 1.15,17.34 11.56,30.06 38.54,1.16 z"
         id="path50" /></clipPath><clipPath
       id="clipPath58"><path
         d="m 2365.14,4098.64 -1.4,111.83 35.09,-8.42 39.78,2.81 0.93,-9.36 -44.45,-9.36 -18.25,-37.9 3.74,-102.47 1.88,16.84 132.42,0.46 -2.34,72.07 -19.66,28.54 -28.54,7.49 4.22,11.22 54.74,-7.01 51.47,4.67 0.94,-13.1 -24.34,-5.61 -1.86,-0.46 -16.85,-31.36 0,-76.73 10.29,11.22 97.33,-1.87 34.17,28.08 6.07,40.24 -7.95,49.13 -37.9,35.09 -46.79,7.02 5.14,12.17 47.26,-6.08 53.35,-16.85 -2.34,-161.9 4.21,-75.8 -12.17,2.8 -10.76,31.82 -35.1,15.44 -230.68,-2.34 -31.35,-18.71 0,-23.4 -13.1,0.94 2.8,118.85 z m 125.88,164.24 -7.5,28.54 -14.96,24.33 3.74,6.09 28.08,-4.21 -28.56,52.87 6.56,55.68 40.24,40.71 68.79,11.24 60.82,-21.54 35.1,-46.32 10.76,-53.34 -4.21,-48.2 6.55,12.64 73,1.4 22.93,10.3 5.61,29.01 11.7,0 -6.55,-49.6 6.55,-52.88 -13.1,1.88 -7.48,19.65 -25.74,7.95 -246.14,-6.54 -14.5,-15.92 -11.69,-3.74 z m 32.28,58.02 84.22,-3.27 46.8,9.36 23.39,35.09 -7.01,47.26 -32.29,24.8 -62.23,7.95 -65.98,-28.07 -16.38,-51.01 23.39,-51.94 6.09,9.83 z m -27.14,180.15 -10.76,34.63 -16.84,29.94 5.6,8.43 183.91,-7.5 20.11,16.38 7.96,13.58 8.89,-1.4 -6.08,-43.53 2.34,-50.53 -12.17,2.34 -2.34,19.65 -23.87,12.64 -129.14,-4.22 -20.12,-17.31 2.81,-9.36 -10.3,-3.74 z m -152.07,48.66 34.15,25.74 25.74,-30.89 -28.54,-23.4 -31.35,28.55 z m 4.67,197 -1.4,34.16 -15.91,33.22 9.83,2.34 14.04,-4.68 301.34,0.93 19.18,13.1 -6.07,13.11 13.09,4.21 4.21,-24.33 12.17,-42.12 -25.27,4.22 -29.48,0.93 24.8,-18.71 27.14,-48.2 -7.95,-42.59 -39.31,-44.45 -85.16,-9.35 -66.45,37.9 -26.66,62.23 -0.94,24.34 12.16,45.38 -14.03,-14.04 -87.97,5.15 -20.6,-31.82 -10.76,-0.93 z m 163.78,-78.15 69.25,-14.97 62.24,20.12 22.46,46.79 -10.76,41.65 -30.89,26.2 0.94,-8.89 -80.95,0 -49.61,-21.05 -9.36,-43.99 26.68,-45.86 z m -41.18,259.23 3.74,46.8 26.21,36.02 61.3,14.04 15.91,-153.94 5.14,18.24 7.96,-2.34 44.45,20.13 30.42,48.19 -9.36,42.58 -29.48,22.46 11.23,8.43 45.85,-45.39 10.3,-42.12 -18.25,-55.68 -66.44,-36.96 -76.75,12.16 -48.19,37.9 -14.04,29.48 z m 78.15,58.02 -47.73,-8.88 -20.12,-34.63 8.88,-29.48 19.66,-18.25 53.34,-6.09 -14.03,97.33 z m -65.05,94.52 -16.37,17.78 -1.87,7.02 28.54,0.94 22.45,-9.83 -25.26,27.14 -18.25,43.98 7.02,45.86 29.95,22.47 -25.27,29.47 -14.5,43.98 13.56,41.65 43.99,20.12 121.19,0 24.81,7.49 7.48,14.97 10.29,3.28 -4.68,-39.77 4.68,-54.28 -10.29,0 -3.75,23.86 -29.01,12.17 -107.15,-3.75 -37.9,-19.65 -0.47,-53.81 26.67,-39.77 -2.81,15.44 124.47,0.94 21.05,6.08 5.15,17.31 11.7,0 -2.34,-39.77 5.15,-48.2 -10.76,2.34 -2.81,13.57 -19.65,15.91 -128.22,-2.81 -28.54,-25.74 1.41,-51.47 27.61,-34.16 -2.82,14.04 125.41,-1.4 21.05,11.22 3.75,18.26 14.97,1.87 -6.55,-45.86 4.68,-43.52 -8.89,-2.8 -4.21,14.98 -18.71,15.44 -138.98,-3.75 -15.91,-20.12 -8.89,-3.75 -12.17,34.63 z m 11.7,335.03 -10.76,34.63 -16.84,29.94 5.6,8.43 183.91,-7.49 20.11,16.38 7.96,13.57 8.89,-1.4 -6.08,-43.53 2.34,-50.53 -12.17,2.34 -2.34,19.66 -23.87,12.63 -129.14,-4.22 -20.12,-17.31 2.81,-9.36 -10.3,-3.74 z m -152.07,48.67 34.15,25.73 25.74,-30.88 -28.54,-23.4 -31.35,28.55 z m 156.29,238.63 21.99,-24.32 -31.83,-36.97 0,-37.9 33.23,-29.49 55.21,-6.08 59.43,23.4 28.08,42.58 -2.81,38.37 -18.25,27.14 4.21,6.55 25.73,-19.65 18.72,-51 -9.36,-54.75 -48.66,-44.45 -75.34,-5.62 -67.85,44.92 -21.98,65.98 6.08,40.71 23.4,20.58 z m 33.69,140.38 -1.41,-8.9 -30.88,-9.82 -18.72,-27.61 6.08,-25.73 27.14,-11.7 28.08,11.23 55.68,73.47 34.63,8.88 41.17,-18.72 17.79,-42.11 -4.68,-47.25 -13.11,-21.53 -53.8,-2.81 2.8,8.42 37.43,13.58 20.12,30.88 -7.94,35.56 -41.19,10.3 -28.54,-21.53 -38.84,-62.7 -43.51,-8.89 -35.1,20.12 -15.45,37.91 1.41,21.05 14.04,36.5 46.8,1.4 z"
         id="path60" /></clipPath><clipPath
       id="clipPath68"><path
         d="m 3643.54,4401.95 14.36,72.34 -11.4,71.34 11.4,3.47 8.42,-31.71 36.17,-19.81 246.24,-3.47 29.23,17.83 8.92,32.21 12.38,0 -11.38,-76.8 8.41,-65.4 -13.87,0 -12.88,39.64 -23.29,6.44 -263.08,-0.49 -21.3,-32.7 -2.48,-16.85 -15.85,3.96 z m 147.14,174.9 -10.89,35.18 -20.82,27.25 5.45,6.43 37.66,-4.95 -23.78,31.71 -17.84,59.94 24.28,42.62 48.06,11.88 131.78,-2.47 18.83,15.86 2.98,6.93 9.9,0.5 -4.46,-42.11 5.46,-45.09 -12.39,-1.49 -3.97,16.85 -21.3,13.38 -127.33,-0.5 -41.13,-23.79 -2.47,-39.14 28.25,-60.94 -1,14.38 145.16,0.49 20.81,14.37 3.47,18.82 7.93,-1.48 -0.99,-52.02 1.49,-41.12 -8.43,-2.98 -5.94,15.36 -24.78,13.87 -137.24,0 -20.8,-17.83 2.48,-5.95 -8.43,-3.96 z m 195.71,254.65 -4.96,17.34 -24.28,14.87 -152.59,-3.47 -5.45,9.42 -1.49,-50.05 -12.88,0 -21.81,39.64 -68.37,6.93 -61.43,36.67 -16.35,47.56 1.49,19.33 22.29,26.75 26.26,-29.73 -32.2,-30.22 7.43,-24.77 49.54,-15.86 90.67,-0.99 -6.94,4.96 -0.99,38.14 22.3,1.49 0.99,-42.6 151.61,3.47 26.26,5.44 9.41,29.23 11.39,-0.98 -5.94,-50.55 4.45,-54 -8.41,1.98 z m -350.28,137.24 -5.46,28.74 -15.36,24.27 4.95,11.4 235.84,-9.91 104.05,2.48 21.79,14.86 2.98,17.34 12.39,0 -6.45,-49.54 3.96,-50.54 -12.88,-0.5 -0.99,18.84 -29.23,14.37 -286.37,-1.99 -15.36,-16.84 -13.86,-2.98 z m 131.78,100.08 3.47,35.68 -6.94,34.19 165.48,0.49 41.12,27.25 0,40.62 -26.26,41.13 -5.94,-8.43 -135.75,-0.98 -18.33,-13.88 -3.47,-19.82 -12.39,-1.98 2.98,37.16 -6.94,43.59 106.52,-3.95 90.66,-0.5 11.9,13.38 -2.98,15.36 12.39,-1.49 1.98,-32.21 13.87,-34.18 -39.13,-1.48 26.26,-39.15 9.9,-47.56 -24.77,-45.09 -90.17,-7.43 -76.79,0 -18.83,-15.35 -4.46,-12.39 -13.38,-2.98 z m -5.94,341.36 3.96,49.55 27.74,38.15 64.91,14.87 16.84,-163.01 5.45,19.33 8.42,-2.48 47.07,21.3 32.21,51.03 -9.91,45.09 -31.22,23.78 11.9,8.91 48.56,-48.05 10.89,-44.59 -19.32,-58.96 -70.36,-39.14 -81.25,12.88 -51.03,40.14 -14.86,31.2 z m 82.73,61.45 -50.53,-9.43 -21.31,-36.65 9.42,-31.22 20.81,-19.32 56.48,-6.44 -14.87,103.06 z m -54,66.88 -10.89,35.18 -20.82,27.25 5.45,6.43 37.66,-4.96 -23.78,31.72 -17.84,59.94 24.28,42.61 48.06,11.89 131.78,-2.48 18.83,15.87 2.98,6.93 9.9,0.5 -4.46,-42.12 5.46,-45.08 -12.39,-1.49 -3.97,16.85 -21.3,13.38 -127.33,-0.5 -41.13,-23.79 -2.47,-39.14 28.25,-60.94 -1,14.38 145.16,0.49 20.81,14.37 3.47,18.82 7.93,-1.48 -0.99,-52.02 1.49,-41.13 -8.43,-2.97 -5.94,15.36 -24.78,13.87 -137.24,0 -20.8,-17.84 2.48,-5.94 -8.43,-3.96 z m -17.34,339.88 -3.46,94.62 201.14,-127.83 10.9,-18.82 -6.93,99.58 -18.83,31.72 -40.62,14.86 0.98,10.4 77.3,-19.82 -1.99,-120.89 5.95,-64.9 -206.61,131.79 -7.43,21.31 3.47,-98.1 15.86,-23.29 34.68,-9.91 -0.99,-6.94 -64.9,4.96 1.48,81.26 z m 72.33,239.79 -30.21,-1 -22.8,-12.38 -11.39,-30.72 25.77,-29.23 18.32,12.88 21.31,-25.76 -22.29,-24.77 -58.47,64.41 -2.98,50.04 47.57,31.7 134.76,-4.95 31.71,22.79 -0.99,11.89 10.9,2.48 10.41,-48.56 -20.32,-21.3 -12.88,6.94 23.79,-27.75 9.9,-41.12 -23.78,-47.06 -65.9,-3.97 -29.22,36.17 -29.73,91.66 -3.48,-12.39 z m 54.01,-81.26 49.55,-0.99 22.29,27.25 2.48,28.74 -20.81,27.74 -87.2,-3.96 33.69,-78.78 z"
         id="path70" /></clipPath><clipPath
       id="clipPath78"><path
         d="m 2051.85,2891.47 -7.32,49.71 11.17,2.31 5.01,-19.27 17.72,-11.56 89.02,1.93 17.73,-10.4 -43.16,54.34 -68.2,52.4 -16.96,-6.94 -1.93,-11.56 -6.93,-1.54 1.92,42.39 -3.08,37.76 8.86,7.71 2.32,-15.8 22.34,-38.91 96.34,-85.56 -5.01,15.42 97.11,79.38 36.99,45.47 6.55,23.12 8.48,-0.76 -1.93,-43.17 -18.1,-35.45 -44.71,-41.23 -67.82,-66.67 62.82,-1.54 45.08,11.17 12.72,29.29 11.17,0 -5.39,-54.33 4.23,-57.03 -7.71,1.15 -4.23,21.58 -24.66,15.8 -186.9,-0.77 -31.98,-12.33 -6.55,-21.19 -8.86,-0.39 3.85,45.47 z m 149.9,318.3 -23.51,-0.77 -17.72,-9.64 -8.87,-23.88 20.04,-22.75 14.26,10.02 16.57,-20.03 -17.34,-19.27 -45.48,50.1 -2.3,38.91 36.99,24.67 104.81,-3.85 24.66,17.72 -0.76,9.25 8.47,1.93 8.09,-37.77 -15.8,-16.57 -10.02,5.4 18.5,-21.58 7.71,-31.98 -18.5,-36.61 -51.25,-3.09 -22.73,28.13 -23.12,71.29 -2.7,-9.63 z m 42,-63.2 38.54,-0.77 17.34,21.2 1.92,22.34 -16.18,21.58 -67.82,-3.08 26.2,-61.27 z m -205,135.65 -4.24,22.34 -11.95,18.89 3.85,8.86 183.43,-7.7 80.93,1.92 16.95,11.56 2.31,13.49 9.63,0 -5,-38.54 3.08,-39.31 -10.02,-0.38 -0.77,14.65 -22.74,11.17 -222.73,-1.54 -11.94,-13.11 -10.79,-2.3 z m 108.66,109.44 -13.48,14.64 -1.55,5.77 23.51,0.78 18.5,-8.1 -20.81,22.35 -15.03,36.22 5.78,37.77 24.66,18.5 -20.81,24.28 -11.94,36.22 11.17,34.29 36.23,16.57 99.81,0 20.41,6.17 6.17,12.33 8.48,2.69 -3.85,-32.75 3.85,-44.69 -8.48,0 -3.08,19.64 -23.89,10.02 -88.25,-3.07 -31.21,-16.2 -0.39,-44.31 21.97,-32.75 -2.31,12.72 102.5,0.76 17.34,5.02 4.24,14.25 9.64,0 -1.93,-32.75 4.23,-39.69 -8.86,1.93 -2.31,11.17 -16.18,13.1 -105.59,-2.31 -23.5,-21.2 1.15,-42.39 22.73,-28.12 -2.31,11.55 103.28,-1.15 17.34,9.25 3.08,15.03 12.33,1.53 -5.39,-37.75 3.85,-35.85 -7.33,-2.3 -3.46,12.32 -15.42,12.73 -114.44,-3.09 -13.11,-16.57 -7.32,-3.09 -10.02,28.53 z m 54.34,371.47 -23.51,-0.77 -17.72,-9.64 -8.87,-23.88 20.04,-22.75 14.26,10.02 16.57,-20.03 -17.34,-19.27 -45.48,50.1 -2.3,38.91 36.99,24.67 104.81,-3.85 24.66,17.72 -0.76,9.25 8.47,1.93 8.09,-37.77 -15.8,-16.57 -10.02,5.39 18.5,-21.57 7.71,-31.98 -18.5,-36.61 -51.25,-3.09 -22.73,28.13 -23.12,71.29 -2.7,-9.63 z m 42,-63.2 38.54,-0.77 17.34,21.19 1.92,22.35 -16.18,21.58 -67.82,-3.08 26.2,-61.27 z m -84.78,131.02 -8.47,27.36 -16.19,21.19 4.24,5.01 29.29,-3.85 -18.5,24.66 -13.87,46.63 18.88,33.14 37.38,9.25 102.5,-1.93 14.65,12.33 2.3,5.4 7.71,0.38 -3.46,-32.75 4.23,-35.07 -9.63,-1.15 -3.08,13.1 -16.57,10.4 -99.03,-0.38 -31.99,-18.51 -1.93,-30.43 21.97,-47.4 -0.77,11.17 112.91,0.39 16.18,11.17 2.7,14.64 6.17,-1.15 -0.78,-40.46 1.15,-31.99 -6.54,-2.3 -4.63,11.93 -19.27,10.8 -106.73,0 -16.19,-13.87 1.93,-4.63 -6.56,-3.08 z m -110.97,406.93 -2.32,107.51 29.29,-7.32 35.83,0 2.7,-9.64 -32.36,-1.16 -24.66,-28.9 1.54,-80.15 10.39,9.64 106.75,-0.78 2.31,55.88 -13.09,25.05 -28.14,10.02 4.63,5.39 46.24,-7.32 46.24,3.85 0,-9.24 -23.51,-3.09 -16.19,-19.65 -3.85,-72.06 10.02,9.63 68.21,0 33.52,16.96 5.4,24.28 13.1,0 -4.62,-53.18 4.23,-57.03 -6.16,-0.39 -5.78,19.66 -21.2,16.18 -206.16,0.38 -21.19,-16.95 -0.39,-18.88 -9.63,-0.39 -1.15,81.7 z m 109.05,122.15 -8.87,28.52 -13.87,24.66 4.63,6.93 151.44,-6.16 16.57,13.48 6.55,11.18 7.32,-1.16 -5.01,-35.83 1.93,-41.62 -10.02,1.92 -1.93,16.19 -19.65,10.41 -106.35,-3.48 -16.58,-14.25 2.32,-7.71 -8.48,-3.08 z m -125.25,40.08 28.14,21.19 21.2,-25.43 -23.51,-19.27 -25.83,23.51 z m 6.95,62.04 -4.24,22.35 -11.95,18.88 3.85,8.87 183.43,-7.71 80.93,1.92 16.95,11.57 2.31,13.48 9.63,0 -5,-38.53 3.08,-39.31 -10.02,-0.39 -0.77,14.65 -22.74,11.18 -222.73,-1.55 -11.94,-13.1 -10.79,-2.31 z m 105.58,133.33 0.78,28.51 20.42,2.31 1.92,-33.14 73.99,0.39 47.78,4.63 13.1,10.39 -6.93,18.51 8.09,2.69 18.5,-25.05 -7.32,-30.44 -30.45,-10.02 -113.68,1.55 -5,9.24 0.38,-32.75 -6.55,-4.24 -52.79,52.41 1.15,7.71 36.61,-2.7 z m -7.7,108.66 3.07,38.54 21.59,29.67 50.48,11.56 13.1,-126.77 4.24,15.02 6.55,-1.93 36.61,16.57 25.05,39.7 -7.71,35.06 -24.28,18.5 9.25,6.93 37.76,-37.37 8.48,-34.68 -15.03,-45.87 -54.71,-30.44 -63.21,10.03 -39.69,31.21 -11.55,24.27 z m 64.35,47.79 -39.31,-7.32 -16.56,-28.52 7.32,-24.27 16.18,-15.04 43.93,-5 -11.56,80.15 z m -42.77,53.56 -5.78,20.43 -16.19,23.88 4.63,5.02 32.75,-3.09 23.12,-5.78 -47.4,32.37 -11.94,23.89 22.73,20.04 22.74,-22.35 -17.34,-15.03 17.34,-23.51 31.6,-7.7 72.83,-0.77 17.34,11.94 5.78,21.2 6.54,0.38 -3.46,-45.08 5.01,-36.61 -8.09,-0.38 -4.63,14.25 -20.42,9.25 -105.97,-3.47 -13.49,-12.71 0,-5.78 -7.7,-0.39 z m 30.05,227.36 -1.15,-7.32 -25.44,-8.1 -15.41,-22.73 5.01,-21.2 22.35,-9.63 23.12,9.25 45.86,60.5 28.51,7.32 33.92,-15.41 14.63,-34.69 -3.85,-38.92 -10.78,-17.72 -44.32,-2.32 2.31,6.94 30.82,11.18 16.58,25.43 -6.56,29.29 -33.9,8.47 -23.51,-17.73 -31.98,-51.63 -35.84,-7.32 -28.9,16.56 -12.72,31.22 1.15,17.34 11.57,30.07 38.53,1.15 z"
         id="path80" /></clipPath><clipPath
       id="clipPath88"><path
         d="m 3833.48,1722.17 -9.25,0 2.31,33.14 -4.24,58.19 7.71,54.33 30.83,39.69 51.25,4.63 43.92,-28.52 20.43,-52.02 -0.39,-41.62 73.99,-0.39 28.13,17.73 6.17,24.66 8.86,-0.76 -4.24,-55.11 6.17,-54.34 -11.56,-0.76 -4.25,20.8 -25.81,17.34 -197.69,-1.93 -22.34,-21.19 0,-13.87 z m 133.71,67.82 1.16,32.76 -23.12,43.92 -46.25,11.18 -43.16,-16.18 -19.65,-40.85 -4.23,-42.78 8.86,12.73 126.39,-0.78 z m 10.02,241.23 -23.51,-0.77 -17.72,-9.64 -8.87,-23.88 20.04,-22.75 14.26,10.02 16.57,-20.03 -17.34,-19.27 -45.48,50.1 -2.3,38.91 36.99,24.67 104.81,-3.85 24.66,17.72 -0.76,9.25 8.47,1.93 8.1,-37.77 -15.81,-16.57 -10.02,5.39 18.5,-21.57 7.71,-31.98 -18.5,-36.61 -51.25,-3.09 -22.73,28.13 -23.12,71.29 -2.7,-9.63 z m 42,-63.2 38.53,-0.77 17.35,21.2 1.92,22.34 -16.18,21.58 -67.82,-3.08 26.2,-61.27 z m -85.54,132.56 -5.78,20.43 -16.19,23.88 4.62,5.02 32.76,-3.09 23.12,-5.78 -47.4,32.37 -11.94,23.89 22.73,20.04 22.74,-22.35 -17.34,-15.03 17.34,-23.51 31.6,-7.7 72.83,-0.77 17.34,11.94 5.78,21.19 6.55,0.39 -3.47,-45.08 5.01,-36.61 -8.09,-0.38 -4.63,14.25 -20.42,9.25 -105.97,-3.47 -13.48,-12.71 0,-5.79 -7.71,-0.38 z m -13.88,176.87 0.78,28.51 20.42,2.32 1.92,-33.14 73.99,0.39 47.78,4.62 13.11,10.4 -6.94,18.5 8.09,2.7 18.5,-25.05 -7.32,-30.44 -30.45,-10.02 -113.68,1.55 -5,9.24 0.39,-32.75 -6.56,-4.24 -52.79,52.41 1.15,7.7 36.61,-2.7 z m 12.71,44.7 -8.86,28.52 -13.87,24.66 4.63,6.94 151.44,-6.17 16.57,13.49 6.55,11.18 7.32,-1.16 -5.01,-35.84 1.93,-41.62 -10.02,1.93 -1.93,16.19 -19.65,10.4 -106.35,-3.47 -16.58,-14.25 2.32,-7.71 -8.49,-3.09 z m -125.23,40.08 28.13,21.2 21.2,-25.44 -23.51,-19.26 -25.82,23.5 z m 128.71,196.53 18.11,-20.04 -26.2,-30.44 0,-31.22 27.36,-24.27 45.46,-5.02 48.95,19.27 23.12,35.07 -2.32,31.6 -15.02,22.35 3.47,5.39 21.19,-16.18 15.41,-42 -7.71,-45.09 -40.07,-36.61 -62.04,-4.62 -55.88,36.99 -18.11,54.34 5.01,33.52 19.27,16.96 z m -121.77,20.04 -4.24,22.34 -11.95,18.89 3.86,8.86 183.42,-7.7 80.93,1.92 16.95,11.57 2.31,13.48 9.64,0 -5.01,-38.53 3.08,-39.31 -10.02,-0.39 -0.77,14.65 -22.74,11.17 -222.73,-1.54 -11.94,-13.1 -10.79,-2.31 z m 97.88,144.88 3.07,38.54 21.59,29.67 50.48,11.56 13.1,-126.77 4.24,15.02 6.56,-1.92 36.6,16.56 25.05,39.7 -7.71,35.06 -24.28,18.5 9.25,6.94 37.76,-37.38 8.48,-34.68 -15.03,-45.86 -54.71,-30.44 -63.21,10.02 -39.69,31.21 -11.55,24.27 z m 64.35,47.78 -39.31,-7.32 -16.56,-28.51 7.32,-24.27 16.18,-15.04 43.93,-5 -11.56,80.14 z m -152.98,262.43 -2.32,107.52 29.29,-7.32 35.84,0 2.69,-9.64 -32.36,-1.16 -24.66,-28.9 1.54,-80.15 10.4,9.64 106.74,-0.78 2.31,55.88 -13.1,25.04 -28.13,10.02 4.62,5.4 46.25,-7.32 46.24,3.85 0,-9.25 -23.51,-3.08 -16.19,-19.65 -3.85,-72.06 10.02,9.63 68.21,0 33.52,16.95 5.4,24.29 13.1,0 -4.62,-53.19 4.24,-57.03 -6.17,-0.38 -5.78,19.65 -21.2,16.18 -206.16,0.39 -21.19,-16.96 -0.39,-18.88 -9.63,-0.38 -1.15,81.69 z m 109.04,122.15 -8.86,28.53 -13.87,24.66 4.63,6.93 151.44,-6.17 16.57,13.49 6.55,11.18 7.32,-1.16 -5.01,-35.84 1.93,-41.62 -10.02,1.93 -1.93,16.19 -19.65,10.41 -106.35,-3.48 -16.58,-14.25 2.32,-7.71 -8.49,-3.09 z m -125.23,40.09 28.13,21.19 21.2,-25.44 -23.51,-19.26 -25.82,23.51 z m 6.94,62.03 -4.24,22.35 -11.95,18.88 3.86,8.87 183.42,-7.71 80.93,1.93 16.95,11.56 2.31,13.49 9.64,0 -5.01,-38.54 3.08,-39.31 -10.02,-0.38 -0.77,14.65 -22.74,11.17 -222.73,-1.54 -11.94,-13.11 -10.79,-2.31 z m 105.58,133.33 0.78,28.51 20.42,2.32 1.92,-33.14 73.99,0.38 47.78,4.63 13.11,10.4 -6.94,18.5 8.09,2.7 18.5,-25.05 -7.32,-30.44 -30.45,-10.02 -113.68,1.54 -5,9.25 0.39,-32.75 -6.56,-4.25 -52.79,52.41 1.15,7.71 36.61,-2.7 z m -7.7,108.67 3.07,38.54 21.59,29.67 50.48,11.56 13.1,-126.78 4.24,15.03 6.56,-1.93 36.6,16.57 25.05,39.7 -7.71,35.05 -24.28,18.5 9.25,6.94 37.76,-37.37 8.48,-34.69 -15.03,-45.86 -54.71,-30.44 -63.21,10.02 -39.69,31.22 -11.55,24.27 z m 64.35,47.78 -39.31,-7.32 -16.56,-28.51 7.32,-24.28 16.18,-15.03 43.93,-5.01 -11.56,80.15 z m -42.77,53.56 -5.78,20.43 -16.19,23.89 4.62,5.02 32.76,-3.09 23.12,-5.79 -47.4,32.38 -11.94,23.89 22.73,20.04 22.74,-22.36 -17.34,-15.02 17.34,-23.51 31.6,-7.71 72.83,-0.76 17.34,11.94 5.78,21.19 6.55,0.39 -3.47,-45.08 5.01,-36.61 -8.09,-0.39 -4.63,14.26 -20.42,9.25 -105.97,-3.47 -13.48,-12.72 0,-5.78 -7.71,-0.39 z m 30.05,227.36 -1.15,-7.32 -25.44,-8.09 -15.41,-22.74 5.01,-21.19 22.35,-9.63 23.12,9.24 45.85,60.51 28.52,7.32 33.91,-15.42 14.65,-34.68 -3.86,-38.92 -10.79,-17.73 -44.31,-2.31 2.31,6.94 30.82,11.17 16.58,25.44 -6.56,29.28 -33.9,8.48 -23.51,-17.73 -31.98,-51.64 -35.84,-7.32 -28.9,16.57 -12.72,31.21 1.16,17.35 11.56,30.06 38.53,1.15 z"
         id="path90" /></clipPath><clipPath
       id="clipPath98"><path
         d="m 2560.4,1716.8 -14.54,23.13 -0.44,26.64 9.91,21.58 33.25,-2.42 0,-3.74 -26.87,-7.05 -9.91,-18.28 3.53,-21.8 24.44,-9.25 20.04,8.81 25.32,36.77 23.12,20.7 27.97,0.67 20.92,-16.74 9.69,-24.44 -2.2,-26.87 -9.91,-22.68 -36.33,-5.94 -2.65,3.52 23.56,8.81 18.27,20.48 0.67,24.66 -16.52,18.5 -24.88,-2.87 -22.46,-27.53 -22.68,-28.17 -25.1,-5.07 -26.2,8.58 z m 51.08,90.29 -5.07,16.29 -7.93,14.1 2.65,3.95 86.53,-3.52 9.48,7.71 3.74,6.38 4.19,-0.66 -2.87,-20.47 1.1,-23.78 -5.73,1.1 -1.1,9.25 -11.22,5.94 -60.78,-1.98 -9.47,-8.15 1.32,-4.4 -4.84,-1.76 z m -71.56,22.89 16.07,12.12 12.12,-14.53 -13.44,-11.01 -14.75,13.42 z m 131.02,61.66 12.54,-11.45 13.44,7.49 7.92,60.77 20.04,11.46 21.14,-12.56 10.36,-29.94 -0.45,-33.7 -5.29,-16.29 -26.64,-3.75 0.66,6.39 18.28,10.79 8.81,22.46 -5.51,25.98 -26.65,12.78 -8.14,-2.2 -5.07,-66.5 -14.75,-10.14 -15.63,12.78 -7.93,10.13 -11.67,-13 -22.68,-7.04 -25.54,11.23 -9.91,21.36 1.32,25.1 6.82,10.8 -3.96,29.94 12.55,-0.67 -1.98,-24.87 13.21,6.6 22.9,-2.2 17.18,-12.55 6.83,-25.33 -2.2,-13.87 z m -7.71,29.51 -13,7.04 -24,0 -21.35,-14.31 -2.65,-11.45 6.61,-12.98 22.24,-7.5 20.04,3.53 14.52,11.67 1.77,10.35 -4.18,13.65 z m -50.65,51.96 -4.84,15.64 -9.26,12.11 2.43,2.86 16.74,-2.2 -10.57,14.09 -7.93,26.64 10.79,18.95 21.36,5.28 58.57,-1.1 8.37,7.05 1.32,3.08 4.4,0.22 -1.98,-18.71 2.43,-20.05 -5.51,-0.66 -1.76,7.49 -9.48,5.95 -56.58,-0.23 -18.28,-10.57 -1.1,-17.39 12.55,-27.09 -0.44,6.39 64.52,0.22 9.24,6.39 1.55,8.36 3.52,-0.65 -0.44,-23.13 0.66,-18.27 -3.74,-1.33 -2.65,6.83 -11.01,6.17 -60.99,0 -9.25,-7.93 1.1,-2.64 -3.74,-1.77 z m 24.44,165.37 -13.43,-0.44 -10.13,-5.5 -5.07,-13.66 11.46,-12.99 8.15,5.72 9.47,-11.45 -9.91,-11 -25.99,28.62 -1.32,22.24 21.14,14.09 59.9,-2.2 14.08,10.14 -0.44,5.28 4.85,1.1 4.63,-21.58 -9.04,-9.47 -5.72,3.08 10.57,-12.33 4.41,-18.27 -10.57,-20.92 -29.29,-1.76 -12.99,16.07 -13.21,40.74 -1.55,-5.51 z m 24.01,-36.11 22.02,-0.44 9.91,12.11 1.1,12.77 -9.25,12.33 -38.76,-1.76 14.98,-35.01 z m -117.15,77.51 -2.42,12.77 -6.83,10.79 2.2,5.06 104.82,-4.4 46.24,1.1 9.68,6.6 1.33,7.71 5.51,0 -2.87,-22.02 1.76,-22.45 -5.73,-0.23 -0.43,8.37 -12.99,6.39 -127.28,-0.89 -6.83,-7.48 -6.16,-1.32 z m 11.01,120 -5.29,0 1.33,18.94 -2.43,33.25 4.41,31.05 17.61,22.68 29.29,2.64 25.1,-16.29 11.67,-29.73 -0.21,-23.78 42.27,-0.22 16.08,10.13 3.52,14.09 5.06,-0.44 -2.42,-31.49 3.53,-31.04 -6.61,-0.44 -2.43,11.89 -14.75,9.9 -112.96,-1.1 -12.77,-12.11 0,-7.93 z m 76.41,38.76 0.66,18.72 -13.21,25.1 -26.42,6.39 -24.67,-9.25 -11.23,-23.34 -2.42,-24.45 5.06,7.27 72.23,-0.44 z m -19.16,85.65 -3.3,11.67 -9.25,13.66 2.64,2.86 18.72,-1.77 13.21,-3.3 -27.08,18.5 -6.83,13.66 13,11.45 12.98,-12.78 -9.91,-8.58 9.91,-13.44 18.06,-4.4 41.62,-0.44 9.91,6.83 3.3,12.11 3.74,0.22 -1.98,-25.77 2.86,-20.91 -4.62,-0.22 -2.65,8.15 -11.66,5.28 -60.56,-1.98 -7.7,-7.27 0,-3.3 -4.41,-0.23 z m -7.49,148.42 13,18.06 27.53,9.25 30.82,-4.85 21.57,-17.17 7.06,-28.63 -4.85,-29.29 -19.16,-20.92 -30.39,-4.18 -35.01,12.55 -14.09,27.3 0.44,26.65 3.08,11.23 z m 22.24,-54.39 38.32,-4.62 25.11,11.66 9.46,19.17 -2.86,19.37 -20.04,11.89 -33.91,5.72 -25.54,-8.14 -10.35,-16.52 0.66,-20.92 19.15,-17.61 z m -13.43,172.42 10.35,-11.46 -14.97,-17.39 0,-17.84 15.63,-13.87 25.99,-2.86 27.96,11.01 13.21,20.03 -1.31,18.07 -8.6,12.76 1.99,3.09 12.11,-9.25 8.81,-24.01 -4.41,-25.76 -22.9,-20.92 -35.45,-2.64 -31.93,21.14 -10.35,31.05 2.86,19.15 11.01,9.7 z m -13.65,43.81 1.76,22.02 12.33,16.96 28.85,6.61 7.48,-72.45 2.43,8.59 3.74,-1.1 20.92,9.46 14.31,22.68 -4.4,20.04 -13.88,10.57 5.29,3.96 21.58,-21.35 4.85,-19.83 -8.6,-26.19 -31.26,-17.41 -36.11,5.73 -22.69,17.84 -6.6,13.87 z m 36.77,27.31 -22.46,-4.19 -9.47,-16.29 4.19,-13.88 9.25,-8.58 25.1,-2.87 -6.61,45.81 z m -7.27,86.98 -0.65,-4.19 -14.54,-4.62 -8.8,-12.99 2.86,-12.11 12.77,-5.51 13.21,5.28 26.2,34.57 16.3,4.19 19.38,-8.81 8.37,-19.81 -2.21,-22.25 -6.16,-10.13 -25.33,-1.32 1.33,3.97 17.61,6.38 9.47,14.54 -3.75,16.73 -19.37,4.84 -13.43,-10.12 -18.28,-29.52 -20.48,-4.17 -16.52,9.46 -7.25,17.84 0.65,9.91 6.6,17.17 22.02,0.67 z m 0,76.84 -0.65,-4.18 -14.54,-4.62 -8.8,-12.99 2.86,-12.11 12.77,-5.51 13.21,5.28 26.2,34.57 16.3,4.19 19.38,-8.81 8.37,-19.82 -2.21,-22.24 -6.16,-10.13 -25.33,-1.32 1.33,3.97 17.61,6.38 9.47,14.54 -3.75,16.73 -19.37,4.84 -13.43,-10.13 -18.28,-29.51 -20.48,-4.18 -16.52,9.47 -7.25,17.83 0.65,9.91 6.6,17.18 22.02,0.66 z m -17.83,18.06 -5.07,16.29 -7.93,14.1 2.65,3.96 86.53,-3.52 9.48,7.7 3.74,6.39 4.19,-0.66 -2.87,-20.48 1.1,-23.78 -5.73,1.1 -1.1,9.25 -11.22,5.94 -60.78,-1.98 -9.47,-8.14 1.32,-4.41 -4.84,-1.76 z m -71.56,22.9 16.07,12.11 12.12,-14.53 -13.44,-11.01 -14.75,13.43 z m 72.66,32.81 -4.84,15.64 -9.26,12.11 2.43,2.85 16.74,-2.2 -10.57,14.1 -7.93,26.64 10.79,18.94 21.36,5.28 58.57,-1.1 8.37,7.05 1.32,3.08 4.4,0.22 -1.98,-18.71 2.43,-20.05 -5.51,-0.66 -1.76,7.5 -9.48,5.94 -56.58,-0.22 -18.28,-10.57 -1.1,-17.4 12.55,-27.09 -0.44,6.4 64.52,0.21 9.24,6.39 1.55,8.36 3.52,-0.65 -0.44,-23.12 0.66,-18.28 -3.74,-1.32 -2.65,6.82 -11.01,6.17 -60.99,0 -9.25,-7.93 1.1,-2.64 -3.74,-1.76 z m 58.36,141.15 12.54,-11.46 13.44,7.49 7.92,60.77 20.04,11.46 21.14,-12.56 10.36,-29.94 -0.45,-33.69 -5.29,-16.29 -26.64,-3.75 0.66,6.39 18.28,10.78 8.81,22.46 -5.51,25.99 -26.65,12.77 -8.14,-2.2 -5.07,-66.5 -14.75,-10.13 -15.63,12.77 -7.93,10.13 -11.67,-13 -22.68,-7.04 -25.54,11.24 -9.91,21.35 1.32,25.1 6.82,10.8 -3.96,29.94 12.55,-0.66 -1.98,-24.88 13.21,6.61 22.9,-2.21 17.18,-12.55 6.83,-25.33 -2.2,-13.86 z m -7.71,29.5 -13,7.04 -24,0 -21.35,-14.31 -2.65,-11.45 6.61,-12.99 22.24,-7.49 20.04,3.53 14.52,11.67 1.77,10.35 -4.18,13.65 z"
         id="path100" /></clipPath><clipPath
       id="clipPath108"><path
         d="m 2417.18,2153.76 16.02,1.49 -0.82,-4.96 -13.55,-2.97 -13.22,-6.11 -6.44,-19.82 5.96,-25.92 20.64,-17.68 29.23,-5.78 26.42,3.8 20.48,17.67 9.08,23.62 -2.97,17.51 -16.85,16.18 -15.02,4.79 1.15,3.63 31.38,-8.75 5.62,-18 1.65,-23.78 -10.07,-28.9 -18.51,-19.82 -29.56,-6.78 -28.24,5.62 -22.46,15.85 -10.73,25.77 -1.33,32.53 9.59,19.66 12.55,1.15 z m 21.63,68.04 9.74,13.54 20.65,6.94 23.12,-3.64 16.19,-12.87 5.28,-21.47 -3.63,-21.97 -14.37,-15.69 -22.79,-3.14 -26.26,9.42 -10.57,20.47 0.33,19.99 2.31,8.42 z m 16.69,-40.8 28.72,-3.46 18.83,8.75 7.11,14.37 -2.15,14.54 -15.03,8.92 -25.43,4.29 -19.16,-6.12 -7.76,-12.38 0.49,-15.69 14.38,-13.22 z m -10.74,69.7 -3.64,11.72 -6.93,9.08 1.81,2.16 12.55,-1.66 -7.92,10.57 -5.95,19.98 8.09,14.21 16.03,3.96 43.93,-0.82 6.27,5.28 1,2.31 3.3,0.17 -1.49,-14.04 1.82,-15.03 -4.13,-0.5 -1.33,5.62 -7.1,4.46 -42.44,-0.17 -13.71,-7.92 -0.82,-13.05 9.41,-20.32 -0.33,4.79 48.39,0.17 6.94,4.79 1.15,6.28 2.64,-0.5 -0.33,-17.34 0.5,-13.7 -2.81,-1 -1.98,5.12 -8.26,4.63 -45.75,0 -6.93,-5.95 0.83,-1.98 -2.81,-1.32 z m -8.09,80.75 1.31,13.05 -0.82,14.87 3.47,1.65 0.99,-6.95 6.77,-1.81 46.41,17.84 9.74,-1 -56.81,21.47 -6.93,-3.63 -0.67,-5.28 -4.95,0 3.14,13.54 -1.65,10.07 3.13,0.83 2.97,-6.77 75.64,-31.7 -9.9,-4.13 -59.96,-22.14 -6.93,-6.11 -0.99,-3.8 -3.96,0 z m -1.49,104.54 1.32,16.51 9.25,12.72 21.63,4.95 5.62,-54.33 1.81,6.44 2.81,-0.83 15.69,7.11 10.73,17 -3.3,15.04 -10.4,7.92 3.96,2.98 16.18,-16.03 3.65,-14.86 -6.45,-19.65 -23.46,-13.05 -27.07,4.3 -17.02,13.37 -4.95,10.41 z m 27.57,20.48 -16.84,-3.14 -7.1,-12.22 3.14,-10.41 6.94,-6.43 18.82,-2.15 -4.96,34.35 z m -24.93,36.16 -1.32,13.71 3.13,0 0.5,-2.97 5.28,-3.14 17.02,10.73 6.11,0.5 -22.3,11.89 -5.44,-0.83 -0.67,-3.96 -3.46,0.82 1.15,10.41 -1.15,11.89 3.13,0.66 0.33,-4.13 6.44,-8.75 23.62,-15.69 36.99,24.44 2.82,4.96 2.8,0.33 -0.83,-17.01 0.83,-14.2 -1.82,0 -3.8,5.28 -5.61,-0.5 -18.66,-8.75 -3.47,-0.33 21.8,-13.54 6.93,1.32 1.33,4.3 2.47,-0.83 -0.16,-11.9 0.99,-12.05 -3.14,0.17 -1.98,7.43 -7.43,8.58 -21.8,13.55 -35.34,-20.64 -2.81,-7.43 -3.14,0.32 0.66,15.36 z m -24.61,123.2 -16.51,28.24 -0.99,33.03 13.87,28.07 29.23,15.04 32.87,0 25.76,-12.73 15.69,-25.43 1.82,-25.42 -8.09,-25.94 -18.01,-19.15 -33.85,-8.26 -11.89,1.32 -29.9,11.23 z m 5.62,13.71 34.35,-7.6 27.91,5.28 23.29,17.18 4.62,23.95 -11.56,23.94 -23.45,9.91 -30.88,0.83 -26.1,-9.74 -13.71,-12.06 -4.13,-17.51 4.13,-17.18 15.53,-17 z m 23.28,103.04 -2.64,10.08 -5.28,8.59 1.31,2.15 9.91,-1.49 -10.07,18.66 2.32,19.65 14.2,14.37 24.28,3.96 21.47,-7.6 12.39,-16.35 3.79,-18.82 -1.49,-17.01 2.31,4.46 25.77,0.49 8.09,3.63 1.99,10.25 4.13,0 -2.32,-17.51 2.32,-18.66 -4.63,0.66 -2.64,6.93 -9.09,2.82 -86.86,-2.32 -5.13,-5.61 -4.13,-1.33 z m 11.4,20.48 29.72,-1.15 16.52,3.3 8.26,12.39 -2.48,16.68 -11.4,8.75 -21.96,2.81 -23.28,-9.91 -5.78,-18 8.26,-18.34 2.14,3.47 z m -15.03,86.05 0.33,12.22 8.76,0.99 0.82,-14.21 31.7,0.17 20.48,1.98 5.62,4.46 -2.98,7.92 3.48,1.16 7.92,-10.73 -3.14,-13.05 -13.04,-4.29 -48.72,0.65 -2.14,3.97 0.16,-14.04 -2.81,-1.81 -22.63,22.45 0.5,3.31 15.69,-1.15 z m 5.45,19.15 -3.8,12.22 -5.94,10.57 1.98,2.97 64.9,-2.64 7.1,5.78 2.81,4.79 3.15,-0.5 -2.16,-15.36 0.83,-17.83 -4.29,0.83 -0.83,6.93 -8.42,4.46 -45.59,-1.48 -7.1,-6.12 1,-3.3 -3.64,-1.32 z m -53.67,17.17 12.05,9.08 9.08,-10.9 -10.07,-8.25 -11.06,10.07 z m 49.54,35.67 -5.77,6.28 -0.67,2.48 10.08,0.32 7.93,-3.46 -8.92,9.58 -6.45,15.52 2.48,16.18 10.57,7.94 -8.92,10.4 -5.11,15.52 4.78,14.7 15.52,7.1 42.78,0 8.76,2.64 2.64,5.29 3.63,1.16 -1.66,-14.04 1.66,-19.16 -3.63,0 -1.33,8.43 -10.24,4.29 -37.82,-1.32 -13.37,-6.94 -0.17,-18.99 9.41,-14.04 -0.98,5.45 43.93,0.33 7.43,2.14 1.81,6.12 4.13,0 -0.83,-14.04 1.83,-17.01 -3.8,0.82 -0.99,4.8 -6.94,5.61 -45.25,-0.99 -10.08,-9.08 0.5,-18.17 9.74,-12.06 -0.98,4.96 44.25,-0.5 7.43,3.96 1.33,6.45 5.28,0.66 -2.32,-16.19 1.66,-15.35 -3.13,-1 -1.49,5.29 -6.61,5.45 -49.05,-1.32 -5.61,-7.11 -3.14,-1.31 -4.3,12.21 z m 4.13,118.25 -3.8,12.21 -5.94,10.58 1.98,2.97 64.9,-2.64 7.1,5.78 2.81,4.78 3.15,-0.49 -2.16,-15.36 0.83,-17.83 -4.29,0.83 -0.83,6.93 -8.42,4.45 -45.59,-1.47 -7.1,-6.12 1,-3.31 -3.64,-1.31 z m -53.67,17.17 12.05,9.08 9.08,-10.9 -10.07,-8.25 -11.06,10.07 z m 48.72,53.67 -1.16,31.54 67.05,-42.6 3.64,-6.28 -2.32,33.19 -6.28,10.58 -13.53,4.95 0.32,3.47 25.77,-6.61 -0.66,-40.29 1.98,-21.64 -68.87,43.94 -2.47,7.09 1.15,-32.69 5.29,-7.77 11.56,-3.3 -0.34,-2.32 -21.63,1.66 0.5,27.08 z m 24.11,79.93 -10.07,-0.33 -7.61,-4.13 -3.79,-10.24 8.59,-9.74 6.11,4.3 7.1,-8.6 -7.44,-8.25 -19.48,21.46 -1,16.69 15.87,10.56 44.92,-1.64 10.57,7.6 -0.34,3.95 3.64,0.83 3.47,-16.18 -6.77,-7.1 -4.3,2.31 7.92,-9.25 3.31,-13.71 -7.92,-15.69 -21.97,-1.31 -9.75,12.05 -9.91,30.55 -1.15,-4.13 z m 18,-27.08 16.52,-0.33 7.43,9.08 0.83,9.59 -6.94,9.24 -29.07,-1.32 11.23,-26.26 z m -42.61,77.45 0.33,12.22 8.76,0.99 0.82,-14.2 31.7,0.17 20.48,1.97 5.62,4.47 -2.98,7.92 3.48,1.16 7.92,-10.73 -3.14,-13.05 -13.04,-4.29 -48.72,0.65 -2.14,3.96 0.16,-14.03 -2.81,-1.82 -22.63,22.46 0.5,3.3 15.69,-1.15 z m 5.45,19.16 -3.8,12.21 -5.94,10.57 1.98,2.98 64.9,-2.64 7.1,5.78 2.81,4.78 3.15,-0.49 -2.16,-15.36 0.83,-17.83 -4.29,0.83 -0.83,6.93 -8.42,4.45 -45.59,-1.48 -7.1,-6.11 1,-3.31 -3.64,-1.31 z m -53.67,17.17 12.05,9.08 9.08,-10.9 -10.07,-8.25 -11.06,10.07 z m 48.55,81.42 9.74,13.54 20.65,6.94 23.12,-3.64 16.19,-12.87 5.28,-21.47 -3.63,-21.97 -14.37,-15.69 -22.79,-3.14 -26.26,9.42 -10.57,20.47 0.33,19.99 2.31,8.42 z m 16.69,-40.79 28.72,-3.47 18.83,8.75 7.11,14.37 -2.15,14.54 -15.03,8.91 -25.43,4.3 -19.16,-6.12 -7.76,-12.39 0.49,-15.68 14.38,-13.21 z m -10.74,69.69 -3.64,11.72 -6.93,9.09 1.81,2.14 12.55,-1.65 -7.92,10.58 -5.95,19.98 8.09,14.2 16.03,3.96 43.93,-0.82 6.27,5.28 1,2.31 3.3,0.16 -1.49,-14.03 1.82,-15.03 -4.13,-0.5 -1.33,5.62 -7.1,4.46 -42.44,-0.17 -13.71,-7.92 -0.82,-13.05 9.41,-20.32 -0.33,4.8 48.39,0.16 6.94,4.79 1.15,6.28 2.64,-0.5 -0.33,-17.34 0.5,-13.7 -2.81,-1 -1.98,5.13 -8.26,4.61 -45.75,0 -6.93,-5.94 0.83,-1.98 -2.81,-1.32 z"
         id="path110" /></clipPath></defs><g
     transform="matrix(1.25,0,0,-1.25,0,600)"
     id="g10"><g
       transform="matrix(0,-0.1,0.1,0,-60.333712,544.38274)"
       id="g12"><g
         id="g14"><g
           clip-path="url(#clipPath18)"
           id="g16"><path
             d="m 720,720 4680,0 0,6480 -4680,0 0,-6480 z"
             id="path22"
             style="fill:#ffffff;fill-opacity:1;fill-rule:nonzero;stroke:none" /></g></g><g
         id="g24"><g
           clip-path="url(#clipPath28)"
           id="g26"><path
             d="m 3268.56,787.16 -7.71,55.051 -0.55,60.555 26.42,89.179 65.51,82.025 88.63,29.18 100.19,-13.22 71.02,-67.71 35.23,-78.165 6.61,-79.825 -4.96,-65.507 6.61,-76.52 -13.76,-2.203 -11.57,33.582 -39.63,23.672 -267.54,-1.652 -41.84,-22.02 0,-27.527 -14.86,-0.551 2.2,61.656 z m 18.71,35.235 276.91,-2.204 41.28,9.911 34.68,47.89 -9.91,74.867 -42.93,53.951 -65.51,27.53 -93.04,1.65 -81.47,-30.28 -47.89,-69.362 -22.02,-75.969 1.65,-53.399 8.25,15.415 z m 197.63,452.505 -33.58,-1.1 -25.32,-13.76 -12.66,-34.13 28.62,-32.48 20.37,14.31 23.67,-28.62 -24.77,-27.53 -64.96,71.57 -3.3,55.6 52.85,35.23 149.73,-5.51 35.24,25.32 -1.11,13.22 12.12,2.75 11.56,-53.95 -22.57,-23.67 -14.32,7.71 26.43,-30.83 11.01,-45.69 -26.43,-52.3 -73.21,-4.4 -32.48,40.18 -33.03,101.84 -3.86,-13.76 z m 60.01,-90.28 55.05,-1.1 24.77,30.28 2.75,31.93 -23.12,30.82 -96.89,-4.4 37.44,-87.53 z m -142.03,258.18 1.1,40.74 29.18,3.3 2.75,-47.34 105.7,0.55 68.26,6.61 18.71,14.86 -9.9,26.43 11.55,3.85 26.43,-35.78 -10.46,-43.49 -43.49,-14.32 -162.4,2.21 -7.15,13.21 0.55,-46.79 -9.36,-6.06 -75.42,74.87 1.65,11.01 52.3,-3.86 z m 82.02,200.39 -33.58,-1.1 -25.32,-13.77 -12.66,-34.13 28.62,-32.48 20.37,14.31 23.67,-28.62 -24.77,-27.52 -64.96,71.56 -3.3,55.6 52.85,35.23 149.73,-5.5 35.24,25.32 -1.11,13.21 12.12,2.75 11.56,-53.94 -22.57,-23.68 -14.32,7.71 26.43,-30.83 11.01,-45.69 -26.43,-52.3 -73.21,-4.4 -32.48,40.19 -33.03,101.84 -3.86,-13.76 z m 60.01,-90.28 55.05,-1.11 24.77,30.28 2.75,31.93 -23.12,30.83 -96.89,-4.41 37.44,-87.52 z m -278,429.38 -4.96,53.95 15.97,2.76 9.35,-17.07 240.02,95.78 53.95,19.83 -66.06,19.26 -218.55,92.49 -29.72,-11.57 -7.71,6.61 9.36,49.55 -5.51,56.7 15.42,0 0.55,-17.62 38.53,-30.83 280.75,22.02 35.24,20.92 4.4,31.93 12.67,1.1 -3.31,-88.63 6.61,-68.26 -14.87,-3.85 -3.85,26.97 -41.29,31.93 -224.6,-16.51 -48.44,-2.76 49.54,-17.61 292.87,-113.96 -137.63,-62.21 -139.83,-61.65 -50.09,-13.21 77.07,-4.4 185.51,-13.22 29.18,18.72 10.46,33.58 14.86,-1.1 -8.25,-63.31 9.36,-68.26 -17.62,-3.85 -2.75,28.07 -35.24,26.97 -266.98,31.93 -45.69,-21.46 -8.81,-28.63 -17.62,2.2 7.71,56.7 z m 154.14,416.73 -12.67,40.74 -19.81,35.23 6.6,9.91 216.35,-8.81 23.67,19.27 9.36,15.96 10.46,-1.65 -7.16,-51.2 2.76,-59.45 -14.32,2.75 -2.75,23.12 -28.08,14.87 -151.94,-4.96 -23.66,-20.37 3.3,-11 -12.11,-4.41 z m -178.92,57.25 40.19,30.28 30.28,-36.33 -33.58,-27.53 -36.89,33.58 z m 181.67,82.03 -12.11,39.08 -23.12,30.28 6.05,7.16 41.84,-5.51 -26.42,35.23 -19.82,66.61 26.97,47.35 53.4,13.21 146.43,-2.75 20.92,17.61 3.31,7.71 11,0.55 -4.95,-46.79 6.06,-50.1 -13.77,-1.65 -4.4,18.72 -23.67,14.86 -141.48,-0.55 -45.69,-26.43 -2.75,-43.48 31.38,-67.71 -1.1,15.96 161.29,0.55 23.12,15.97 3.85,20.91 8.81,-1.65 -1.1,-57.8 1.65,-45.69 -9.36,-3.31 -6.6,17.07 -27.53,15.42 -152.49,0 -23.11,-19.83 2.75,-6.6 -9.36,-4.4 z m -2.75,276.9 -12.67,40.73 -19.81,35.23 6.6,9.91 216.35,-8.8 23.67,19.27 9.36,15.96 10.46,-1.65 -7.16,-51.2 2.76,-59.45 -14.32,2.75 -2.75,23.12 -28.08,14.86 -151.94,-4.95 -23.66,-20.37 3.3,-11.01 -12.11,-4.4 z m -178.92,57.25 40.19,30.28 30.28,-36.34 -33.58,-27.52 -36.89,33.58 z m 181.67,82.02 -12.11,39.09 -23.12,30.28 6.05,7.15 41.84,-5.5 -26.42,35.23 -19.82,66.61 26.97,47.34 53.4,13.21 146.43,-2.75 20.92,17.62 3.31,7.71 11,0.54 -4.95,-46.79 6.06,-50.09 -13.77,-1.66 -4.4,18.72 -23.67,14.87 -141.48,-0.55 -45.69,-26.43 -2.75,-43.49 31.38,-67.71 -1.1,15.97 161.29,0.55 23.12,15.96 3.85,20.92 8.81,-1.65 -1.1,-57.8 1.65,-45.69 -9.36,-3.31 -6.6,17.07 -27.53,15.41 -152.49,0 -23.11,-19.82 2.75,-6.6 -9.36,-4.41 z m 145.88,352.87 31.38,-28.62 33.58,18.71 19.82,151.94 50.09,28.63 52.85,-31.38 25.87,-74.87 -1.1,-84.23 -13.21,-40.73 -66.61,-9.36 1.65,15.96 45.7,26.98 22.01,56.15 -13.76,64.96 -66.61,31.93 -20.37,-5.51 -12.66,-166.25 -36.88,-25.32 -39.09,31.93 -19.82,25.32 -29.17,-32.48 -56.71,-17.62 -63.85,28.08 -24.77,53.4 3.3,62.75 17.06,26.98 -9.9,74.87 31.38,-1.65 -4.96,-62.21 33.03,16.51 57.25,-5.5 42.94,-31.38 17.06,-63.31 -5.5,-34.68 z m -19.27,73.77 -32.48,17.62 -60,0 -53.4,-35.79 -6.6,-28.62 16.51,-32.48 55.6,-18.72 50.1,8.81 36.33,29.18 4.4,25.87 -10.46,34.13"
             id="path32"
             style="fill:#4c6e00;fill-opacity:1;fill-rule:nonzero;stroke:none" /></g></g><g
         id="g34"><g
           clip-path="url(#clipPath38)"
           id="g36"><path
             d="m 2841.52,1945.59 -2.64,29.06 8.92,62.1 32.37,28.73 35.35,-1.64 24.77,-22.46 8.58,-34.36 2.64,20.81 8.92,22.79 24.11,23.12 27.42,7.27 33.69,-12.22 26.76,-41.95 2.31,-118.91 -11.56,3.3 -3.3,15.86 -21.47,13.21 -168.46,-2.31 -18.5,-11.89 -3.3,-15.53 -8.26,-0.99 1.65,36.01 z m 119.25,20.14 84.22,1.66 20.47,17.17 0.67,23.45 -10.9,27.75 -20.81,13.54 -32.37,0.66 -29.4,-19.48 -15.52,-35.02 0,-34.02 3.64,4.29 z m -109.34,3.31 97.44,0 -0.66,25.76 -10.57,26.42 -19.48,17.84 -33.03,-1.32 -27.09,-21.13 -12.88,-30.72 1.98,-26.43 4.29,9.58 z m 120.9,218.32 -20.16,-0.65 -15.19,-8.26 -7.59,-20.48 17.17,-19.49 12.22,8.59 14.2,-17.18 -14.86,-16.51 -38.98,42.94 -1.98,33.35 31.71,21.15 89.84,-3.31 21.15,15.19 -0.66,7.93 7.26,1.66 6.93,-32.37 -13.53,-14.21 -8.6,4.63 15.86,-18.5 6.6,-27.42 -15.85,-31.38 -43.93,-2.64 -19.49,24.11 -19.82,61.11 -2.3,-8.26 z m 35.99,-54.16 33.04,-0.66 14.86,18.16 1.65,19.16 -13.87,18.5 -58.13,-2.65 22.45,-52.51 z m -86.2,134.09 -3.96,29.73 7.59,1 1.65,-10.91 12.23,-4.29 98.09,34.35 13.88,1.65 -105.7,35.01 -17.51,-6.61 -0.99,-10.23 -9.24,2.64 3.96,23.78 -3.64,24.44 8.26,1 4.96,-14.54 15.52,-9.58 184.97,-68.04 19.49,-27.75 -16.85,-15.51 -16.52,15.51 11.9,12.89 -5.29,9.24 -44.59,17.51 -136.08,-50.86 -13.87,-8.26 -3.64,-9.91 -6.61,0.33 1.99,27.41 z m -5.62,180.35 2.64,33.03 18.5,25.42 43.27,9.91 11.23,-108.66 3.63,12.87 5.62,-1.64 31.38,14.2 21.47,34.02 -6.61,30.06 -20.8,15.85 7.92,5.95 32.37,-32.04 7.26,-29.72 -12.87,-39.32 -46.9,-26.08 -54.18,8.58 -34.02,26.75 -9.91,20.82 z m 55.16,40.95 -33.69,-6.27 -14.2,-24.44 6.27,-20.81 13.88,-12.89 37.65,-4.29 -9.91,68.7 z m -10.89,130.47 -1,-6.28 -21.8,-6.93 -13.21,-19.49 4.29,-18.17 19.16,-8.26 19.82,7.93 39.31,51.86 24.44,6.27 29.06,-13.21 12.55,-29.73 -3.3,-33.35 -9.25,-15.2 -37.98,-1.98 1.98,5.94 26.42,9.58 14.2,21.8 -5.6,25.11 -29.07,7.26 -20.15,-15.19 -27.41,-44.26 -30.72,-6.28 -24.77,14.2 -10.91,26.77 1,14.86 9.91,25.76 33.03,0.99 z m -26.76,27.08 -7.6,24.45 -11.89,21.13 3.96,5.95 129.82,-5.29 14.2,11.56 5.61,9.58 6.27,-0.98 -4.29,-30.73 1.65,-35.67 -8.58,1.65 -1.65,13.87 -16.85,8.93 -91.16,-2.98 -14.2,-12.22 1.98,-6.61 -7.27,-2.64 z m -107.35,34.35 24.11,18.17 18.17,-21.8 -20.15,-16.52 -22.13,20.15 z m 145.67,128.81 -20.16,-0.65 -15.19,-8.26 -7.59,-20.48 17.17,-19.49 12.22,8.6 14.2,-17.18 -14.86,-16.52 -38.98,42.94 -1.98,33.36 31.71,21.14 89.84,-3.3 21.15,15.19 -0.66,7.93 7.26,1.65 6.93,-32.37 -13.53,-14.21 -8.6,4.63 15.86,-18.49 6.6,-27.43 -15.85,-31.37 -43.93,-2.64 -19.49,24.11 -19.82,61.1 -2.3,-8.26 z m 35.99,-54.16 33.04,-0.66 14.86,18.16 1.65,19.16 -13.87,18.5 -58.13,-2.65 22.45,-52.51 z m -72.66,112.3 -7.27,23.45 -13.87,18.16 3.64,4.3 25.09,-3.3 -15.85,21.13 -11.88,39.98 16.18,28.4 32.03,7.93 87.87,-1.65 12.55,10.56 1.98,4.63 6.6,0.33 -2.96,-28.08 3.62,-30.06 -8.25,-0.99 -2.64,11.23 -14.2,8.92 -84.89,-0.33 -27.42,-15.85 -1.65,-26.1 18.82,-40.62 -0.65,9.57 96.78,0.34 13.87,9.57 2.3,12.56 5.29,-1 -0.66,-34.68 0.99,-27.41 -5.62,-1.98 -3.95,10.23 -16.52,9.25 -91.49,0 -13.87,-11.89 1.65,-3.96 -5.62,-2.64 z m -78.28,307.51 -21.8,34.68 -0.66,39.96 14.86,32.37 49.88,-3.64 0,-5.61 -40.3,-10.57 -14.86,-27.42 5.28,-32.69 36.67,-13.87 30.05,13.21 37.99,55.16 34.68,31.04 41.95,0.99 31.38,-25.1 14.52,-36.66 -3.3,-40.3 -14.86,-34.02 -54.5,-8.91 -3.96,5.28 35.34,13.21 27.42,30.71 0.99,37 -24.77,27.75 -37.33,-4.29 -33.69,-41.29 -34.02,-42.29 -37.66,-7.59 -39.3,12.89 z m 59.12,190.25 2.64,33.03 18.5,25.42 43.27,9.91 11.23,-108.66 3.63,12.87 5.62,-1.65 31.38,14.21 21.47,34.02 -6.61,30.06 -20.8,15.85 7.92,5.95 32.37,-32.04 7.26,-29.73 -12.87,-39.31 -46.9,-26.09 -54.18,8.59 -34.02,26.75 -9.91,20.82 z m 55.16,40.95 -33.69,-6.27 -14.2,-24.45 6.27,-20.8 13.88,-12.89 37.65,-4.29 -9.91,68.7 z m -35.67,182.99 188.93,-1.99 18.5,5.94 3.3,12.56 6.94,0 -3.31,-32.7 4.29,-35.01 -7.59,0.33 -6.27,17.5 -17.84,7.93 -65.73,-1.65 16.51,-34.68 -3.95,-38.98 -35.02,-33.69 -51.86,-4.95 -46.9,30.71 -17.51,36.01 0.66,36.66 14.2,26.42 -18.82,8.59 2.64,6.94 18.83,-5.94 z m 107.35,-25.44 -75.97,0 -25.1,-7.27 -14.87,-30.72 8.26,-29.72 35.02,-17.51 46.57,0.99 33.35,22.79 9.26,33.03 -13.22,34.35 -3.3,-5.94 z m -122.87,53.18 2.31,23.78 -4.62,22.78 110.32,0.34 27.41,18.17 0,27.08 -17.5,27.42 -3.97,-5.62 -90.5,-0.67 -12.22,-9.24 -2.31,-13.21 -8.26,-1.33 1.98,24.78 -4.63,29.07 71.02,-2.65 60.45,-0.33 7.92,8.92 -1.98,10.24 8.26,-0.99 1.31,-21.47 9.26,-22.79 -26.1,-1 17.51,-26.08 6.6,-31.72 -16.51,-30.05 -60.12,-4.95 -51.19,0 -12.55,-10.25 -2.97,-8.26 -8.92,-1.97 z m -3.97,227.57 2.64,33.03 18.5,25.43 43.27,9.91 11.23,-108.67 3.63,12.88 5.62,-1.65 31.38,14.21 21.47,34.02 -6.61,30.05 -20.8,15.85 7.92,5.95 32.37,-32.03 7.26,-29.73 -12.87,-39.31 -46.9,-26.09 -54.18,8.59 -34.02,26.75 -9.91,20.81 z m 55.16,40.95 -33.69,-6.27 -14.2,-24.44 6.27,-20.81 13.88,-12.88 37.65,-4.3 -9.91,68.7 z m -36,44.59 -7.27,23.45 -13.87,18.17 3.64,4.3 25.09,-3.3 -15.85,21.13 -11.88,39.97 16.18,28.4 32.03,7.93 87.87,-1.65 12.55,10.56 1.98,4.63 6.6,0.33 -2.96,-28.08 3.62,-30.05 -8.25,-0.99 -2.64,11.23 -14.2,8.92 -84.89,-0.33 -27.42,-15.85 -1.65,-26.1 18.82,-40.62 -0.65,9.57 96.78,0.33 13.87,9.58 2.3,12.55 5.29,-0.99 -0.66,-34.69 0.99,-27.41 -5.62,-1.98 -3.95,10.24 -16.52,9.25 -91.49,0 -13.87,-11.89 1.65,-3.97 -5.62,-2.64 z m -12.55,211.06 0.66,24.44 17.51,1.99 1.65,-28.41 63.42,0.33 40.95,3.96 11.23,8.92 -5.94,15.85 6.93,2.32 15.86,-21.47 -6.28,-26.09 -26.09,-8.59 -97.44,1.32 -4.29,7.92 0.32,-28.07 -5.61,-3.63 -45.25,44.91 0.99,6.61 31.38,-2.31 z m 10.9,38.31 -7.6,24.45 -11.89,21.13 3.96,5.95 129.82,-5.28 14.2,11.55 5.61,9.59 6.27,-0.99 -4.29,-30.72 1.65,-35.68 -8.58,1.66 -1.65,13.87 -16.85,8.92 -91.16,-2.98 -14.2,-12.22 1.98,-6.61 -7.27,-2.64 z m -107.35,34.36 24.11,18.16 18.17,-21.8 -20.15,-16.51 -22.13,20.15 z m 145.67,128.81 -20.16,-0.65 -15.19,-8.26 -7.59,-20.48 17.17,-19.5 12.22,8.6 14.2,-17.18 -14.86,-16.51 -38.98,42.93 -1.98,33.36 31.71,21.14 89.84,-3.3 21.15,15.19 -0.66,7.93 7.26,1.65 6.93,-32.36 -13.53,-14.21 -8.6,4.62 15.86,-18.49 6.6,-27.42 -15.85,-31.38 -43.93,-2.64 -19.49,24.11 -19.82,61.11 -2.3,-8.26 z m 35.99,-54.17 33.04,-0.66 14.86,18.17 1.65,19.15 -13.87,18.51 -58.13,-2.65 22.45,-52.52 z m -175.71,116.27 -3.64,19.16 -10.23,16.18 3.3,7.6 157.22,-6.61 69.36,1.65 14.54,9.91 1.98,11.56 8.25,0 -4.29,-33.03 2.64,-33.69 -8.58,-0.33 -0.66,12.55 -19.49,9.58 -190.92,-1.32 -10.23,-11.23 -9.25,-1.98 z m 11.23,224.26 -4.29,59.46 9.57,-2.97 1.65,-22.13 16.52,-15.2 178.36,-2.3 14.21,11.22 -1,71.01 -17.5,22.8 -32.37,13.21 1.97,10.9 63.42,-19.16 -4.29,-76.3 3.3,-94.47 -9.24,-0.32 -0.67,14.53 -17.83,17.5 -179.02,-0.99 -16.51,-15.85 0,-16.51 -12.23,0.66 5.95,44.91 z m 72.66,210.41 2.64,33.03 18.5,25.42 43.27,9.91 11.23,-108.66 3.63,12.88 5.62,-1.66 31.38,14.21 21.47,34.02 -6.61,30.06 -20.8,15.85 7.92,5.95 32.37,-32.04 7.26,-29.73 -12.87,-39.31 -46.9,-26.09 -54.18,8.59 -34.02,26.75 -9.91,20.82 z m 55.16,40.95 -33.69,-6.27 -14.2,-24.45 6.27,-20.8 13.88,-12.89 37.65,-4.29 -9.91,68.7 z m 0.67,124.19 -20.16,-0.65 -15.19,-8.26 -7.59,-20.48 17.17,-19.5 12.22,8.6 14.2,-17.18 -14.86,-16.51 -38.98,42.93 -1.98,33.36 31.71,21.14 89.84,-3.3 21.15,15.19 -0.66,7.93 7.26,1.65 6.93,-32.36 -13.53,-14.21 -8.6,4.62 15.86,-18.49 6.6,-27.42 -15.85,-31.38 -43.93,-2.64 -19.49,24.11 -19.82,61.11 -2.3,-8.26 z m 35.99,-54.17 33.04,-0.66 14.86,18.17 1.65,19.15 -13.87,18.5 -58.13,-2.64 22.45,-52.52 z m -73.32,113.62 -4.96,17.51 -13.86,20.48 3.95,4.29 28.08,-2.64 19.82,-4.95 -40.63,27.74 -10.24,20.48 19.49,17.18 19.49,-19.16 -14.86,-12.89 14.86,-20.14 27.09,-6.61 62.42,-0.66 14.86,10.24 4.95,18.16 5.62,0.34 -2.97,-38.65 4.3,-31.38 -6.95,-0.33 -3.95,12.22 -17.51,7.93 -90.84,-2.98 -11.56,-10.89 0,-4.96 -6.6,-0.33 z m 0.66,109 -7.27,23.45 -13.87,18.16 3.64,4.3 25.09,-3.3 -15.85,21.14 -11.88,39.97 16.18,28.4 32.03,7.93 87.87,-1.65 12.55,10.56 1.98,4.63 6.6,0.32 -2.96,-28.07 3.62,-30.05 -8.25,-0.99 -2.64,11.22 -14.2,8.92 -84.89,-0.33 -27.42,-15.85 -1.65,-26.1 18.82,-40.62 -0.65,9.57 96.78,0.34 13.87,9.57 2.3,12.56 5.29,-1 -0.66,-34.68 0.99,-27.41 -5.62,-1.98 -3.95,10.24 -16.52,9.24 -91.49,0 -13.87,-11.88 1.65,-3.97 -5.62,-2.64 z m -1.65,166.14 -7.6,24.44 -11.89,21.14 3.96,5.95 129.82,-5.29 14.2,11.56 5.61,9.58 6.27,-0.99 -4.29,-30.72 1.65,-35.67 -8.58,1.65 -1.65,13.87 -16.85,8.92 -91.16,-2.97 -14.2,-12.23 1.98,-6.6 -7.27,-2.64 z m -107.35,34.35 24.11,18.17 18.17,-21.81 -20.15,-16.51 -22.13,20.15 z m 109,49.21 -7.27,23.45 -13.87,18.17 3.64,4.3 25.09,-3.31 -15.85,21.14 -11.88,39.97 16.18,28.4 32.03,7.93 87.87,-1.65 12.55,10.56 1.98,4.63 6.6,0.33 -2.96,-28.08 3.62,-30.05 -8.25,-0.99 -2.64,11.22 -14.2,8.93 -84.89,-0.33 -27.42,-15.85 -1.65,-26.1 18.82,-40.63 -0.65,9.58 96.78,0.33 13.87,9.57 2.3,12.56 5.29,-0.99 -0.66,-34.68 0.99,-27.42 -5.62,-1.98 -3.95,10.24 -16.52,9.25 -91.49,0 -13.87,-11.89 1.65,-3.97 -5.62,-2.64 z m 87.53,211.72 18.83,-17.17 20.14,11.22 11.9,91.17 30.05,17.17 31.71,-18.82 15.52,-44.93 -0.65,-50.53 -7.93,-24.44 -39.96,-5.61 0.99,9.57 27.41,16.19 13.21,33.69 -8.26,38.97 -39.96,19.16 -12.23,-3.3 -7.59,-99.76 -22.13,-15.19 -23.45,19.16 -11.9,15.19 -17.5,-19.48 -34.02,-10.57 -38.32,16.84 -14.86,32.04 1.99,37.66 10.23,16.17 -5.94,44.93 18.83,-0.99 -2.98,-37.33 19.82,9.91 34.35,-3.3 25.76,-18.82 10.24,-37.98 -3.3,-20.82 z m -11.56,44.26 -19.49,10.57 -36,0 -32.04,-21.47 -3.97,-17.17 9.91,-19.5 33.37,-11.22 30.05,5.28 21.81,17.51 2.64,15.52 -6.28,20.48"
             id="path42"
             style="fill:#243b00;fill-opacity:1;fill-rule:nonzero;stroke:none" /></g></g><g
         id="g44"><g
           clip-path="url(#clipPath48)"
           id="g46"><path
             d="m 3316,4212.02 -3.07,33.91 10.4,72.44 37.76,33.53 41.24,-1.93 28.9,-26.2 10.01,-40.08 3.09,24.28 10.4,26.59 28.13,26.97 31.98,8.48 39.32,-14.26 31.21,-48.94 2.69,-138.73 -13.49,3.86 -3.85,18.5 -25.05,15.41 -196.53,-2.7 -21.58,-13.87 -3.85,-18.11 -9.63,-1.16 1.92,42.01 z m 139.12,23.5 98.26,1.93 23.9,20.04 0.76,27.36 -12.71,32.36 -24.28,15.81 -37.76,0.76 -34.3,-22.73 -18.11,-40.85 0,-39.69 4.24,5.01 z m -127.56,3.85 113.68,0 -0.76,30.06 -12.34,30.83 -22.73,20.81 -38.53,-1.54 -31.61,-24.66 -15.02,-35.84 2.31,-30.83 5,11.17 z m 141.05,254.72 -23.51,-0.77 -17.72,-9.64 -8.87,-23.88 20.04,-22.75 14.25,10.02 16.58,-20.03 -17.34,-19.27 -45.48,50.1 -2.31,38.92 36.99,24.66 104.82,-3.85 24.66,17.72 -0.76,9.25 8.47,1.93 8.09,-37.77 -15.8,-16.57 -10.02,5.4 18.5,-21.58 7.71,-31.98 -18.5,-36.61 -51.25,-3.09 -22.73,28.14 -23.13,71.29 -2.69,-9.64 z m 42,-63.2 38.53,-0.77 17.34,21.2 1.93,22.34 -16.18,21.59 -67.82,-3.09 26.2,-61.27 z m -100.57,156.46 -4.63,34.68 8.86,1.15 1.93,-12.72 14.26,-5.01 114.45,40.09 16.18,1.92 -123.31,40.84 -20.42,-7.71 -1.16,-11.93 -10.79,3.07 4.63,27.75 -4.24,28.52 9.63,1.15 5.78,-16.95 18.11,-11.18 215.79,-79.38 22.74,-32.37 -19.65,-18.11 -19.27,18.11 13.87,15.03 -6.16,10.79 -52.02,20.43 -158.77,-59.35 -16.18,-9.63 -4.24,-11.56 -7.71,0.38 2.32,31.99 z m -6.56,210.39 3.08,38.54 21.58,29.67 50.49,11.56 13.1,-126.78 4.23,15.03 6.56,-1.92 36.61,16.56 25.05,39.7 -7.71,35.06 -24.28,18.5 9.24,6.93 37.77,-37.37 8.48,-34.68 -15.03,-45.87 -54.72,-30.44 -63.2,10.02 -39.69,31.22 -11.56,24.27 z m 64.36,47.78 -39.31,-7.32 -16.57,-28.51 7.32,-24.28 16.18,-15.03 43.94,-5 -11.56,80.14 z m -12.72,152.22 -1.16,-7.32 -25.43,-8.1 -15.42,-22.73 5.01,-21.19 22.36,-9.64 23.12,9.25 45.85,60.5 28.51,7.32 33.92,-15.41 14.64,-34.68 -3.85,-38.92 -10.79,-17.73 -44.31,-2.32 2.3,6.94 30.83,11.18 16.58,25.43 -6.56,29.29 -33.91,8.48 -23.51,-17.73 -31.98,-51.64 -35.84,-7.32 -28.9,16.57 -12.71,31.21 1.15,17.34 11.56,30.07 38.54,1.15 z m -31.22,31.59 -8.86,28.53 -13.87,24.66 4.63,6.93 151.43,-6.17 16.58,13.49 6.55,11.18 7.32,-1.16 -5.01,-35.83 1.92,-41.63 -10.02,1.93 -1.92,16.19 -19.66,10.41 -106.35,-3.48 -16.57,-14.25 2.31,-7.71 -8.48,-3.09 z m -125.24,40.09 28.14,21.19 21.19,-25.43 -23.51,-19.27 -25.82,23.51 z m 169.95,150.28 -23.51,-0.77 -17.72,-9.64 -8.87,-23.88 20.04,-22.75 14.25,10.02 16.58,-20.03 -17.34,-19.27 -45.48,50.1 -2.31,38.91 36.99,24.67 104.82,-3.85 24.66,17.72 -0.76,9.25 8.47,1.93 8.09,-37.77 -15.8,-16.57 -10.02,5.4 18.5,-21.58 7.71,-31.98 -18.5,-36.61 -51.25,-3.09 -22.73,28.14 -23.13,71.29 -2.69,-9.64 z m 42,-63.2 38.53,-0.77 17.34,21.2 1.93,22.34 -16.18,21.58 -67.82,-3.08 26.2,-61.27 z m -84.78,131.02 -8.47,27.36 -16.19,21.19 4.24,5.01 29.29,-3.85 -18.5,24.66 -13.87,46.63 18.88,33.14 37.37,9.25 102.51,-1.93 14.64,12.33 2.31,5.4 7.71,0.38 -3.47,-32.75 4.24,-35.07 -9.63,-1.15 -3.08,13.1 -16.58,10.4 -99.03,-0.38 -31.99,-18.5 -1.92,-30.44 21.97,-47.4 -0.78,11.17 112.91,0.39 16.18,11.18 2.71,14.64 6.16,-1.15 -0.77,-40.47 1.15,-31.99 -6.54,-2.3 -4.63,11.93 -19.27,10.8 -106.74,0 -16.18,-13.87 1.92,-4.63 -6.55,-3.08 z m -109.83,424.27 -1.15,92.1 28.9,-6.94 32.76,2.31 0.77,-7.71 -36.61,-7.7 -15.03,-31.22 3.09,-84.39 1.54,13.88 109.05,0.38 -1.93,59.34 -16.18,23.51 -23.51,6.17 3.47,9.25 45.09,-5.78 42.38,3.85 0.77,-10.79 -20.03,-4.62 -1.54,-0.39 -13.88,-25.82 0,-63.2 8.48,9.25 80.15,-1.54 28.13,23.12 5.01,33.14 -6.55,40.46 -31.22,28.91 -38.53,5.77 4.24,10.03 38.92,-5.02 43.93,-13.87 -1.93,-133.33 3.47,-62.43 -10.02,2.32 -8.86,26.2 -28.9,12.72 -189.97,-1.93 -25.83,-15.41 0,-19.27 -10.78,0.77 2.3,97.88 z m 109.83,134.48 -8.47,27.37 -16.19,21.19 4.24,5.01 29.29,-3.86 -18.5,24.66 -13.87,46.63 18.88,33.14 37.37,9.25 102.51,-1.93 14.64,12.34 2.31,5.39 7.71,0.39 -3.47,-32.76 4.24,-35.07 -9.63,-1.15 -3.08,13.1 -16.58,10.4 -99.03,-0.38 -31.99,-18.5 -1.92,-30.44 21.97,-47.39 -0.78,11.17 112.91,0.38 16.18,11.18 2.71,14.64 6.16,-1.15 -0.77,-40.47 1.15,-31.98 -6.54,-2.31 -4.63,11.94 -19.27,10.8 -106.74,0 -16.18,-13.88 1.92,-4.63 -6.55,-3.08 z m 29.29,296.72 -1.16,-7.32 -25.43,-8.09 -15.42,-22.74 5.01,-21.19 22.36,-9.63 23.12,9.24 45.85,60.51 28.51,7.32 33.92,-15.42 14.64,-34.68 -3.85,-38.92 -10.79,-17.73 -44.31,-2.31 2.3,6.94 30.83,11.17 16.58,25.43 -6.56,29.29 -33.91,8.48 -23.51,-17.73 -31.98,-51.64 -35.84,-7.32 -28.9,16.57 -12.71,31.22 1.15,17.34 11.56,30.06 38.54,1.15 z m -51.64,95.56 3.08,38.54 21.58,29.68 50.49,11.55 13.1,-126.77 4.23,15.02 6.56,-1.92 36.61,16.56 25.05,39.7 -7.71,35.06 -24.28,18.5 9.24,6.94 37.77,-37.38 8.48,-34.68 -15.03,-45.86 -54.72,-30.44 -63.2,10.02 -39.69,31.21 -11.56,24.27 z m 64.36,47.79 -39.31,-7.32 -16.57,-28.52 7.32,-24.27 16.18,-15.03 43.94,-5.01 -11.56,80.15 z m -53.57,77.84 -13.49,14.64 -1.54,5.79 23.51,0.77 18.49,-8.09 -20.81,22.34 -15.02,36.22 5.78,37.77 24.66,18.49 -20.81,24.28 -11.95,36.23 11.18,34.29 36.23,16.57 99.8,0 20.42,6.16 6.17,12.34 8.48,2.69 -3.85,-32.75 3.85,-44.7 -8.48,0 -3.08,19.65 -23.9,10.02 -88.24,-3.08 -31.21,-16.18 -0.39,-44.32 21.97,-32.76 -2.32,12.73 102.51,0.76 17.34,5.01 4.24,14.26 9.63,0 -1.92,-32.76 4.23,-39.68 -8.86,1.92 -2.32,11.17 -16.18,13.11 -105.59,-2.32 -23.5,-21.19 1.16,-42.39 22.73,-28.13 -2.31,11.57 103.28,-1.16 17.34,9.25 3.07,15.03 12.34,1.54 -5.39,-37.77 3.85,-35.84 -7.33,-2.3 -3.47,12.32 -15.41,12.72 -114.44,-3.08 -13.11,-16.57 -7.32,-3.09 -10.02,28.52 z m -106.35,276.68 -3.47,22.35 -15.8,27.36 6.16,4.63 49.72,-5.79 83.61,-1.16 -22.73,43.94 6.93,58.95 60.12,28.52 61.65,-6.17 37.39,-32.75 16.56,-53.18 -16.56,-77.45 -10.41,11.94 -228.13,-0.77 -15.41,-10.01 0,-8.48 -9.63,-1.93 z m 134.48,45.85 84.01,-0.38 36.99,14.65 13.49,34.68 -14.64,38.14 -44.32,18.12 -58.57,-7.33 -31.98,-31.21 -3.09,-42.77 15.03,-31.22 3.08,7.32 z m -136.79,160.31 -4.25,22.35 -11.94,18.88 3.85,8.87 183.43,-7.71 80.92,1.93 16.95,11.56 2.32,13.49 9.63,0 -5,-38.54 3.07,-39.31 -10.02,-0.38 -0.76,14.64 -22.74,11.18 -222.73,-1.54 -11.95,-13.11 -10.78,-2.31 z m 97.87,144.89 3.08,38.54 21.58,29.67 50.49,11.56 13.1,-126.78 4.23,15.03 6.56,-1.93 36.61,16.57 25.05,39.7 -7.71,35.05 -24.28,18.51 9.24,6.93 37.77,-37.37 8.48,-34.69 -15.03,-45.86 -54.72,-30.44 -63.2,10.02 -39.69,31.22 -11.56,24.27 z m 64.36,47.78 -39.31,-7.32 -16.57,-28.51 7.32,-24.28 16.18,-15.03 43.94,-5.01 -11.56,80.15 z m -12.72,152.22 -1.16,-7.32 -25.43,-8.1 -15.42,-22.73 5.01,-21.2 22.36,-9.63 23.12,9.25 45.85,60.5 28.51,7.32 33.92,-15.41 14.64,-34.68 -3.85,-38.93 -10.79,-17.73 -44.31,-2.31 2.3,6.94 30.83,11.17 16.58,25.44 -6.56,29.29 -33.91,8.47 -23.51,-17.73 -31.98,-51.63 -35.84,-7.32 -28.9,16.57 -12.71,31.21 1.15,17.34 11.56,30.06 38.54,1.16"
             id="path52"
             style="fill:#f7a000;fill-opacity:1;fill-rule:nonzero;stroke:none" /></g></g><g
         id="g54"><g
           clip-path="url(#clipPath58)"
           id="g56"><path
             d="m 2365.14,4098.64 -1.4,111.83 35.09,-8.42 39.78,2.81 0.93,-9.36 -44.45,-9.36 -18.25,-37.9 3.74,-102.47 1.88,16.84 132.42,0.46 -2.34,72.07 -19.66,28.54 -28.54,7.49 4.22,11.22 54.74,-7.01 51.47,4.67 0.94,-13.1 -24.34,-5.61 -1.86,-0.46 -16.85,-31.36 0,-76.73 10.29,11.22 97.33,-1.87 34.17,28.08 6.07,40.24 -7.95,49.13 -37.9,35.09 -46.79,7.02 5.14,12.17 47.26,-6.08 53.35,-16.85 -2.34,-161.9 4.21,-75.8 -12.17,2.8 -10.76,31.82 -35.1,15.44 -230.68,-2.34 -31.35,-18.71 0,-23.4 -13.1,0.94 2.8,118.85 z m 125.88,164.24 -7.5,28.54 -14.96,24.33 3.74,6.09 28.08,-4.21 -28.56,52.87 6.56,55.68 40.24,40.71 68.79,11.24 60.82,-21.54 35.1,-46.32 10.76,-53.34 -4.21,-48.2 6.55,12.64 73,1.4 22.93,10.3 5.61,29.01 11.7,0 -6.55,-49.6 6.55,-52.88 -13.1,1.88 -7.48,19.65 -25.74,7.95 -246.14,-6.54 -14.5,-15.92 -11.69,-3.74 z m 32.28,58.02 84.22,-3.27 46.8,9.36 23.39,35.09 -7.01,47.26 -32.29,24.8 -62.23,7.95 -65.98,-28.07 -16.38,-51.01 23.39,-51.94 6.09,9.83 z m -27.14,180.15 -10.76,34.63 -16.84,29.94 5.6,8.43 183.91,-7.5 20.11,16.38 7.96,13.58 8.89,-1.4 -6.08,-43.53 2.34,-50.53 -12.17,2.34 -2.34,19.65 -23.87,12.64 -129.14,-4.22 -20.12,-17.31 2.81,-9.36 -10.3,-3.74 z m -152.07,48.66 34.15,25.74 25.74,-30.89 -28.54,-23.4 -31.35,28.55 z m 4.67,197 -1.4,34.16 -15.91,33.22 9.83,2.34 14.04,-4.68 301.34,0.93 19.18,13.1 -6.07,13.11 13.09,4.21 4.21,-24.33 12.17,-42.12 -25.27,4.22 -29.48,0.93 24.8,-18.71 27.14,-48.2 -7.95,-42.59 -39.31,-44.45 -85.16,-9.35 -66.45,37.9 -26.66,62.23 -0.94,24.34 12.16,45.38 -14.03,-14.04 -87.97,5.15 -20.6,-31.82 -10.76,-0.93 z m 163.78,-78.15 69.25,-14.97 62.24,20.12 22.46,46.79 -10.76,41.65 -30.89,26.2 0.94,-8.89 -80.95,0 -49.61,-21.05 -9.36,-43.99 26.68,-45.86 z m -41.18,259.23 3.74,46.8 26.21,36.02 61.3,14.04 15.91,-153.94 5.14,18.24 7.96,-2.34 44.45,20.13 30.42,48.19 -9.36,42.58 -29.48,22.46 11.23,8.43 45.85,-45.39 10.3,-42.12 -18.25,-55.68 -66.44,-36.96 -76.75,12.16 -48.19,37.9 -14.04,29.48 z m 78.15,58.02 -47.73,-8.88 -20.12,-34.63 8.88,-29.48 19.66,-18.25 53.34,-6.09 -14.03,97.33 z m -65.05,94.52 -16.37,17.78 -1.87,7.02 28.54,0.94 22.45,-9.83 -25.26,27.14 -18.25,43.98 7.02,45.86 29.95,22.47 -25.27,29.47 -14.5,43.98 13.56,41.65 43.99,20.12 121.19,0 24.81,7.49 7.48,14.97 10.29,3.28 -4.68,-39.77 4.68,-54.28 -10.29,0 -3.75,23.86 -29.01,12.17 -107.15,-3.75 -37.9,-19.65 -0.47,-53.81 26.67,-39.77 -2.81,15.44 124.47,0.94 21.05,6.08 5.15,17.31 11.7,0 -2.34,-39.77 5.15,-48.2 -10.76,2.34 -2.81,13.57 -19.65,15.91 -128.22,-2.81 -28.54,-25.74 1.41,-51.47 27.61,-34.16 -2.82,14.04 125.41,-1.4 21.05,11.22 3.75,18.26 14.97,1.87 -6.55,-45.86 4.68,-43.52 -8.89,-2.8 -4.21,14.98 -18.71,15.44 -138.98,-3.75 -15.91,-20.12 -8.89,-3.75 -12.17,34.63 z m 11.7,335.03 -10.76,34.63 -16.84,29.94 5.6,8.43 183.91,-7.49 20.11,16.38 7.96,13.57 8.89,-1.4 -6.08,-43.53 2.34,-50.53 -12.17,2.34 -2.34,19.66 -23.87,12.63 -129.14,-4.22 -20.12,-17.31 2.81,-9.36 -10.3,-3.74 z m -152.07,48.67 34.15,25.73 25.74,-30.88 -28.54,-23.4 -31.35,28.55 z m 156.29,238.63 21.99,-24.32 -31.83,-36.97 0,-37.9 33.23,-29.49 55.21,-6.08 59.43,23.4 28.08,42.58 -2.81,38.37 -18.25,27.14 4.21,6.55 25.73,-19.65 18.72,-51 -9.36,-54.75 -48.66,-44.45 -75.34,-5.62 -67.85,44.92 -21.98,65.98 6.08,40.71 23.4,20.58 z m 33.69,140.38 -1.41,-8.9 -30.88,-9.82 -18.72,-27.61 6.08,-25.73 27.14,-11.7 28.08,11.23 55.68,73.47 34.63,8.88 41.17,-18.72 17.79,-42.11 -4.68,-47.25 -13.11,-21.53 -53.8,-2.81 2.8,8.42 37.43,13.58 20.12,30.88 -7.94,35.56 -41.19,10.3 -28.54,-21.53 -38.84,-62.7 -43.51,-8.89 -35.1,20.12 -15.45,37.91 1.41,21.05 14.04,36.5 46.8,1.4"
             id="path62"
             style="fill:#eb2100;fill-opacity:1;fill-rule:nonzero;stroke:none" /></g></g><g
         id="g64"><g
           clip-path="url(#clipPath68)"
           id="g66"><path
             d="m 3643.54,4401.95 14.36,72.34 -11.4,71.34 11.4,3.47 8.42,-31.71 36.17,-19.81 246.24,-3.47 29.23,17.83 8.92,32.21 12.38,0 -11.38,-76.8 8.41,-65.4 -13.87,0 -12.88,39.64 -23.29,6.44 -263.08,-0.49 -21.3,-32.7 -2.48,-16.85 -15.85,3.96 z m 147.14,174.9 -10.89,35.18 -20.82,27.25 5.45,6.43 37.66,-4.95 -23.78,31.71 -17.84,59.94 24.28,42.62 48.06,11.88 131.78,-2.47 18.83,15.86 2.98,6.93 9.9,0.5 -4.46,-42.11 5.46,-45.09 -12.39,-1.49 -3.97,16.85 -21.3,13.38 -127.33,-0.5 -41.13,-23.79 -2.47,-39.14 28.25,-60.94 -1,14.38 145.16,0.49 20.81,14.37 3.47,18.82 7.93,-1.48 -0.99,-52.02 1.49,-41.12 -8.43,-2.98 -5.94,15.36 -24.78,13.87 -137.24,0 -20.8,-17.83 2.48,-5.95 -8.43,-3.96 z m 195.71,254.65 -4.96,17.34 -24.28,14.87 -152.59,-3.47 -5.45,9.42 -1.49,-50.05 -12.88,0 -21.81,39.64 -68.37,6.93 -61.43,36.67 -16.35,47.56 1.49,19.33 22.29,26.75 26.26,-29.73 -32.2,-30.22 7.43,-24.77 49.54,-15.86 90.67,-0.99 -6.94,4.96 -0.99,38.14 22.3,1.49 0.99,-42.6 151.61,3.47 26.26,5.44 9.41,29.23 11.39,-0.98 -5.94,-50.55 4.45,-54 -8.41,1.98 z m -350.28,137.24 -5.46,28.74 -15.36,24.27 4.95,11.4 235.84,-9.91 104.05,2.48 21.79,14.86 2.98,17.34 12.39,0 -6.45,-49.54 3.96,-50.54 -12.88,-0.5 -0.99,18.84 -29.23,14.37 -286.37,-1.99 -15.36,-16.84 -13.86,-2.98 z m 131.78,100.08 3.47,35.68 -6.94,34.19 165.48,0.49 41.12,27.25 0,40.62 -26.26,41.13 -5.94,-8.43 -135.75,-0.98 -18.33,-13.88 -3.47,-19.82 -12.39,-1.98 2.98,37.16 -6.94,43.59 106.52,-3.95 90.66,-0.5 11.9,13.38 -2.98,15.36 12.39,-1.49 1.98,-32.21 13.87,-34.18 -39.13,-1.48 26.26,-39.15 9.9,-47.56 -24.77,-45.09 -90.17,-7.43 -76.79,0 -18.83,-15.35 -4.46,-12.39 -13.38,-2.98 z m -5.94,341.36 3.96,49.55 27.74,38.15 64.91,14.87 16.84,-163.01 5.45,19.33 8.42,-2.48 47.07,21.3 32.21,51.03 -9.91,45.09 -31.22,23.78 11.9,8.91 48.56,-48.05 10.89,-44.59 -19.32,-58.96 -70.36,-39.14 -81.25,12.88 -51.03,40.14 -14.86,31.2 z m 82.73,61.45 -50.53,-9.43 -21.31,-36.65 9.42,-31.22 20.81,-19.32 56.48,-6.44 -14.87,103.06 z m -54,66.88 -10.89,35.18 -20.82,27.25 5.45,6.43 37.66,-4.96 -23.78,31.72 -17.84,59.94 24.28,42.61 48.06,11.89 131.78,-2.48 18.83,15.87 2.98,6.93 9.9,0.5 -4.46,-42.12 5.46,-45.08 -12.39,-1.49 -3.97,16.85 -21.3,13.38 -127.33,-0.5 -41.13,-23.79 -2.47,-39.14 28.25,-60.94 -1,14.38 145.16,0.49 20.81,14.37 3.47,18.82 7.93,-1.48 -0.99,-52.02 1.49,-41.13 -8.43,-2.97 -5.94,15.36 -24.78,13.87 -137.24,0 -20.8,-17.84 2.48,-5.94 -8.43,-3.96 z m -17.34,339.88 -3.46,94.62 201.14,-127.83 10.9,-18.82 -6.93,99.58 -18.83,31.72 -40.62,14.86 0.98,10.4 77.3,-19.82 -1.99,-120.89 5.95,-64.9 -206.61,131.79 -7.43,21.31 3.47,-98.1 15.86,-23.29 34.68,-9.91 -0.99,-6.94 -64.9,4.96 1.48,81.26 z m 72.33,239.79 -30.21,-1 -22.8,-12.38 -11.39,-30.72 25.77,-29.23 18.32,12.88 21.31,-25.76 -22.29,-24.77 -58.47,64.41 -2.98,50.04 47.57,31.7 134.76,-4.95 31.71,22.79 -0.99,11.89 10.9,2.48 10.41,-48.56 -20.32,-21.3 -12.88,6.94 23.79,-27.75 9.9,-41.12 -23.78,-47.06 -65.9,-3.97 -29.22,36.17 -29.73,91.66 -3.48,-12.39 z m 54.01,-81.26 49.55,-0.99 22.29,27.25 2.48,28.74 -20.81,27.74 -87.2,-3.96 33.69,-78.78"
             id="path72"
             style="fill:#2e3b00;fill-opacity:1;fill-rule:nonzero;stroke:none" /></g></g><g
         id="g74"><g
           clip-path="url(#clipPath78)"
           id="g76"><path
             d="m 2051.85,2891.47 -7.32,49.71 11.17,2.31 5.01,-19.27 17.72,-11.56 89.02,1.93 17.73,-10.4 -43.16,54.34 -68.2,52.4 -16.96,-6.94 -1.93,-11.56 -6.93,-1.54 1.92,42.39 -3.08,37.76 8.86,7.71 2.32,-15.8 22.34,-38.91 96.34,-85.56 -5.01,15.42 97.11,79.38 36.99,45.47 6.55,23.12 8.48,-0.76 -1.93,-43.17 -18.1,-35.45 -44.71,-41.23 -67.82,-66.67 62.82,-1.54 45.08,11.17 12.72,29.29 11.17,0 -5.39,-54.33 4.23,-57.03 -7.71,1.15 -4.23,21.58 -24.66,15.8 -186.9,-0.77 -31.98,-12.33 -6.55,-21.19 -8.86,-0.39 3.85,45.47 z m 149.9,318.3 -23.51,-0.77 -17.72,-9.64 -8.87,-23.88 20.04,-22.75 14.26,10.02 16.57,-20.03 -17.34,-19.27 -45.48,50.1 -2.3,38.91 36.99,24.67 104.81,-3.85 24.66,17.72 -0.76,9.25 8.47,1.93 8.09,-37.77 -15.8,-16.57 -10.02,5.4 18.5,-21.58 7.71,-31.98 -18.5,-36.61 -51.25,-3.09 -22.73,28.13 -23.12,71.29 -2.7,-9.63 z m 42,-63.2 38.54,-0.77 17.34,21.2 1.92,22.34 -16.18,21.58 -67.82,-3.08 26.2,-61.27 z m -205,135.65 -4.24,22.34 -11.95,18.89 3.85,8.86 183.43,-7.7 80.93,1.92 16.95,11.56 2.31,13.49 9.63,0 -5,-38.54 3.08,-39.31 -10.02,-0.38 -0.77,14.65 -22.74,11.17 -222.73,-1.54 -11.94,-13.11 -10.79,-2.3 z m 108.66,109.44 -13.48,14.64 -1.55,5.77 23.51,0.78 18.5,-8.1 -20.81,22.35 -15.03,36.22 5.78,37.77 24.66,18.5 -20.81,24.28 -11.94,36.22 11.17,34.29 36.23,16.57 99.81,0 20.41,6.17 6.17,12.33 8.48,2.69 -3.85,-32.75 3.85,-44.69 -8.48,0 -3.08,19.64 -23.89,10.02 -88.25,-3.07 -31.21,-16.2 -0.39,-44.31 21.97,-32.75 -2.31,12.72 102.5,0.76 17.34,5.02 4.24,14.25 9.64,0 -1.93,-32.75 4.23,-39.69 -8.86,1.93 -2.31,11.17 -16.18,13.1 -105.59,-2.31 -23.5,-21.2 1.15,-42.39 22.73,-28.12 -2.31,11.55 103.28,-1.15 17.34,9.25 3.08,15.03 12.33,1.53 -5.39,-37.75 3.85,-35.85 -7.33,-2.3 -3.46,12.32 -15.42,12.73 -114.44,-3.09 -13.11,-16.57 -7.32,-3.09 -10.02,28.53 z m 54.34,371.47 -23.51,-0.77 -17.72,-9.64 -8.87,-23.88 20.04,-22.75 14.26,10.02 16.57,-20.03 -17.34,-19.27 -45.48,50.1 -2.3,38.91 36.99,24.67 104.81,-3.85 24.66,17.72 -0.76,9.25 8.47,1.93 8.09,-37.77 -15.8,-16.57 -10.02,5.39 18.5,-21.57 7.71,-31.98 -18.5,-36.61 -51.25,-3.09 -22.73,28.13 -23.12,71.29 -2.7,-9.63 z m 42,-63.2 38.54,-0.77 17.34,21.19 1.92,22.35 -16.18,21.58 -67.82,-3.08 26.2,-61.27 z m -84.78,131.02 -8.47,27.36 -16.19,21.19 4.24,5.01 29.29,-3.85 -18.5,24.66 -13.87,46.63 18.88,33.14 37.38,9.25 102.5,-1.93 14.65,12.33 2.3,5.4 7.71,0.38 -3.46,-32.75 4.23,-35.07 -9.63,-1.15 -3.08,13.1 -16.57,10.4 -99.03,-0.38 -31.99,-18.51 -1.93,-30.43 21.97,-47.4 -0.77,11.17 112.91,0.39 16.18,11.17 2.7,14.64 6.17,-1.15 -0.78,-40.46 1.15,-31.99 -6.54,-2.3 -4.63,11.93 -19.27,10.8 -106.73,0 -16.19,-13.87 1.93,-4.63 -6.56,-3.08 z m -110.97,406.93 -2.32,107.51 29.29,-7.32 35.83,0 2.7,-9.64 -32.36,-1.16 -24.66,-28.9 1.54,-80.15 10.39,9.64 106.75,-0.78 2.31,55.88 -13.09,25.05 -28.14,10.02 4.63,5.39 46.24,-7.32 46.24,3.85 0,-9.24 -23.51,-3.09 -16.19,-19.65 -3.85,-72.06 10.02,9.63 68.21,0 33.52,16.96 5.4,24.28 13.1,0 -4.62,-53.18 4.23,-57.03 -6.16,-0.39 -5.78,19.66 -21.2,16.18 -206.16,0.38 -21.19,-16.95 -0.39,-18.88 -9.63,-0.39 -1.15,81.7 z m 109.05,122.15 -8.87,28.52 -13.87,24.66 4.63,6.93 151.44,-6.16 16.57,13.48 6.55,11.18 7.32,-1.16 -5.01,-35.83 1.93,-41.62 -10.02,1.92 -1.93,16.19 -19.65,10.41 -106.35,-3.48 -16.58,-14.25 2.32,-7.71 -8.48,-3.08 z m -125.25,40.08 28.14,21.19 21.2,-25.43 -23.51,-19.27 -25.83,23.51 z m 6.95,62.04 -4.24,22.35 -11.95,18.88 3.85,8.87 183.43,-7.71 80.93,1.92 16.95,11.57 2.31,13.48 9.63,0 -5,-38.53 3.08,-39.31 -10.02,-0.39 -0.77,14.65 -22.74,11.18 -222.73,-1.55 -11.94,-13.1 -10.79,-2.31 z m 105.58,133.33 0.78,28.51 20.42,2.31 1.92,-33.14 73.99,0.39 47.78,4.63 13.1,10.39 -6.93,18.51 8.09,2.69 18.5,-25.05 -7.32,-30.44 -30.45,-10.02 -113.68,1.55 -5,9.24 0.38,-32.75 -6.55,-4.24 -52.79,52.41 1.15,7.71 36.61,-2.7 z m -7.7,108.66 3.07,38.54 21.59,29.67 50.48,11.56 13.1,-126.77 4.24,15.02 6.55,-1.93 36.61,16.57 25.05,39.7 -7.71,35.06 -24.28,18.5 9.25,6.93 37.76,-37.37 8.48,-34.68 -15.03,-45.87 -54.71,-30.44 -63.21,10.03 -39.69,31.21 -11.55,24.27 z m 64.35,47.79 -39.31,-7.32 -16.56,-28.52 7.32,-24.27 16.18,-15.04 43.93,-5 -11.56,80.15 z m -42.77,53.56 -5.78,20.43 -16.19,23.88 4.63,5.02 32.75,-3.09 23.12,-5.78 -47.4,32.37 -11.94,23.89 22.73,20.04 22.74,-22.35 -17.34,-15.03 17.34,-23.51 31.6,-7.7 72.83,-0.77 17.34,11.94 5.78,21.2 6.54,0.38 -3.46,-45.08 5.01,-36.61 -8.09,-0.38 -4.63,14.25 -20.42,9.25 -105.97,-3.47 -13.49,-12.71 0,-5.78 -7.7,-0.39 z m 30.05,227.36 -1.15,-7.32 -25.44,-8.1 -15.41,-22.73 5.01,-21.2 22.35,-9.63 23.12,9.25 45.86,60.5 28.51,7.32 33.92,-15.41 14.63,-34.69 -3.85,-38.92 -10.78,-17.72 -44.32,-2.32 2.31,6.94 30.82,11.18 16.58,25.43 -6.56,29.29 -33.9,8.47 -23.51,-17.73 -31.98,-51.63 -35.84,-7.32 -28.9,16.56 -12.72,31.22 1.15,17.34 11.57,30.07 38.53,1.15"
             id="path82"
             style="fill:#273b00;fill-opacity:1;fill-rule:nonzero;stroke:none" /></g></g><g
         id="g84"><g
           clip-path="url(#clipPath88)"
           id="g86"><path
             d="m 3833.48,1722.17 -9.25,0 2.31,33.14 -4.24,58.19 7.71,54.33 30.83,39.69 51.25,4.63 43.92,-28.52 20.43,-52.02 -0.39,-41.62 73.99,-0.39 28.13,17.73 6.17,24.66 8.86,-0.76 -4.24,-55.11 6.17,-54.34 -11.56,-0.76 -4.25,20.8 -25.81,17.34 -197.69,-1.93 -22.34,-21.19 0,-13.87 z m 133.71,67.82 1.16,32.76 -23.12,43.92 -46.25,11.18 -43.16,-16.18 -19.65,-40.85 -4.23,-42.78 8.86,12.73 126.39,-0.78 z m 10.02,241.23 -23.51,-0.77 -17.72,-9.64 -8.87,-23.88 20.04,-22.75 14.26,10.02 16.57,-20.03 -17.34,-19.27 -45.48,50.1 -2.3,38.91 36.99,24.67 104.81,-3.85 24.66,17.72 -0.76,9.25 8.47,1.93 8.1,-37.77 -15.81,-16.57 -10.02,5.39 18.5,-21.57 7.71,-31.98 -18.5,-36.61 -51.25,-3.09 -22.73,28.13 -23.12,71.29 -2.7,-9.63 z m 42,-63.2 38.53,-0.77 17.35,21.2 1.92,22.34 -16.18,21.58 -67.82,-3.08 26.2,-61.27 z m -85.54,132.56 -5.78,20.43 -16.19,23.88 4.62,5.02 32.76,-3.09 23.12,-5.78 -47.4,32.37 -11.94,23.89 22.73,20.04 22.74,-22.35 -17.34,-15.03 17.34,-23.51 31.6,-7.7 72.83,-0.77 17.34,11.94 5.78,21.19 6.55,0.39 -3.47,-45.08 5.01,-36.61 -8.09,-0.38 -4.63,14.25 -20.42,9.25 -105.97,-3.47 -13.48,-12.71 0,-5.79 -7.71,-0.38 z m -13.88,176.87 0.78,28.51 20.42,2.32 1.92,-33.14 73.99,0.39 47.78,4.62 13.11,10.4 -6.94,18.5 8.09,2.7 18.5,-25.05 -7.32,-30.44 -30.45,-10.02 -113.68,1.55 -5,9.24 0.39,-32.75 -6.56,-4.24 -52.79,52.41 1.15,7.7 36.61,-2.7 z m 12.71,44.7 -8.86,28.52 -13.87,24.66 4.63,6.94 151.44,-6.17 16.57,13.49 6.55,11.18 7.32,-1.16 -5.01,-35.84 1.93,-41.62 -10.02,1.93 -1.93,16.19 -19.65,10.4 -106.35,-3.47 -16.58,-14.25 2.32,-7.71 -8.49,-3.09 z m -125.23,40.08 28.13,21.2 21.2,-25.44 -23.51,-19.26 -25.82,23.5 z m 128.71,196.53 18.11,-20.04 -26.2,-30.44 0,-31.22 27.36,-24.27 45.46,-5.02 48.95,19.27 23.12,35.07 -2.32,31.6 -15.02,22.35 3.47,5.39 21.19,-16.18 15.41,-42 -7.71,-45.09 -40.07,-36.61 -62.04,-4.62 -55.88,36.99 -18.11,54.34 5.01,33.52 19.27,16.96 z m -121.77,20.04 -4.24,22.34 -11.95,18.89 3.86,8.86 183.42,-7.7 80.93,1.92 16.95,11.57 2.31,13.48 9.64,0 -5.01,-38.53 3.08,-39.31 -10.02,-0.39 -0.77,14.65 -22.74,11.17 -222.73,-1.54 -11.94,-13.1 -10.79,-2.31 z m 97.88,144.88 3.07,38.54 21.59,29.67 50.48,11.56 13.1,-126.77 4.24,15.02 6.56,-1.92 36.6,16.56 25.05,39.7 -7.71,35.06 -24.28,18.5 9.25,6.94 37.76,-37.38 8.48,-34.68 -15.03,-45.86 -54.71,-30.44 -63.21,10.02 -39.69,31.21 -11.55,24.27 z m 64.35,47.78 -39.31,-7.32 -16.56,-28.51 7.32,-24.27 16.18,-15.04 43.93,-5 -11.56,80.14 z m -152.98,262.43 -2.32,107.52 29.29,-7.32 35.84,0 2.69,-9.64 -32.36,-1.16 -24.66,-28.9 1.54,-80.15 10.4,9.64 106.74,-0.78 2.31,55.88 -13.1,25.04 -28.13,10.02 4.62,5.4 46.25,-7.32 46.24,3.85 0,-9.25 -23.51,-3.08 -16.19,-19.65 -3.85,-72.06 10.02,9.63 68.21,0 33.52,16.95 5.4,24.29 13.1,0 -4.62,-53.19 4.24,-57.03 -6.17,-0.38 -5.78,19.65 -21.2,16.18 -206.16,0.39 -21.19,-16.96 -0.39,-18.88 -9.63,-0.38 -1.15,81.69 z m 109.04,122.15 -8.86,28.53 -13.87,24.66 4.63,6.93 151.44,-6.17 16.57,13.49 6.55,11.18 7.32,-1.16 -5.01,-35.84 1.93,-41.62 -10.02,1.93 -1.93,16.19 -19.65,10.41 -106.35,-3.48 -16.58,-14.25 2.32,-7.71 -8.49,-3.09 z m -125.23,40.09 28.13,21.19 21.2,-25.44 -23.51,-19.26 -25.82,23.51 z m 6.94,62.03 -4.24,22.35 -11.95,18.88 3.86,8.87 183.42,-7.71 80.93,1.93 16.95,11.56 2.31,13.49 9.64,0 -5.01,-38.54 3.08,-39.31 -10.02,-0.38 -0.77,14.65 -22.74,11.17 -222.73,-1.54 -11.94,-13.11 -10.79,-2.31 z m 105.58,133.33 0.78,28.51 20.42,2.32 1.92,-33.14 73.99,0.38 47.78,4.63 13.11,10.4 -6.94,18.5 8.09,2.7 18.5,-25.05 -7.32,-30.44 -30.45,-10.02 -113.68,1.54 -5,9.25 0.39,-32.75 -6.56,-4.25 -52.79,52.41 1.15,7.71 36.61,-2.7 z m -7.7,108.67 3.07,38.54 21.59,29.67 50.48,11.56 13.1,-126.78 4.24,15.03 6.56,-1.93 36.6,16.57 25.05,39.7 -7.71,35.05 -24.28,18.5 9.25,6.94 37.76,-37.37 8.48,-34.69 -15.03,-45.86 -54.71,-30.44 -63.21,10.02 -39.69,31.22 -11.55,24.27 z m 64.35,47.78 -39.31,-7.32 -16.56,-28.51 7.32,-24.28 16.18,-15.03 43.93,-5.01 -11.56,80.15 z m -42.77,53.56 -5.78,20.43 -16.19,23.89 4.62,5.02 32.76,-3.09 23.12,-5.79 -47.4,32.38 -11.94,23.89 22.73,20.04 22.74,-22.36 -17.34,-15.02 17.34,-23.51 31.6,-7.71 72.83,-0.76 17.34,11.94 5.78,21.19 6.55,0.39 -3.47,-45.08 5.01,-36.61 -8.09,-0.39 -4.63,14.26 -20.42,9.25 -105.97,-3.47 -13.48,-12.72 0,-5.78 -7.71,-0.39 z m 30.05,227.36 -1.15,-7.32 -25.44,-8.09 -15.41,-22.74 5.01,-21.19 22.35,-9.63 23.12,9.24 45.85,60.51 28.52,7.32 33.91,-15.42 14.65,-34.68 -3.86,-38.92 -10.79,-17.73 -44.31,-2.31 2.31,6.94 30.82,11.17 16.58,25.44 -6.56,29.28 -33.9,8.48 -23.51,-17.73 -31.98,-51.64 -35.84,-7.32 -28.9,16.57 -12.72,31.21 1.16,17.35 11.56,30.06 38.53,1.15"
             id="path92"
             style="fill:#eb7100;fill-opacity:1;fill-rule:nonzero;stroke:none" /></g></g><g
         id="g94"><g
           clip-path="url(#clipPath98)"
           id="g96"><path
             d="m 2560.4,1716.8 -14.54,23.13 -0.44,26.64 9.91,21.58 33.25,-2.42 0,-3.74 -26.87,-7.05 -9.91,-18.28 3.53,-21.8 24.44,-9.25 20.04,8.81 25.32,36.77 23.12,20.7 27.97,0.67 20.92,-16.74 9.69,-24.44 -2.2,-26.87 -9.91,-22.68 -36.33,-5.94 -2.65,3.52 23.56,8.81 18.27,20.48 0.67,24.66 -16.52,18.5 -24.88,-2.87 -22.46,-27.53 -22.68,-28.17 -25.1,-5.07 -26.2,8.58 z m 51.08,90.29 -5.07,16.29 -7.93,14.1 2.65,3.95 86.53,-3.52 9.48,7.71 3.74,6.38 4.19,-0.66 -2.87,-20.47 1.1,-23.78 -5.73,1.1 -1.1,9.25 -11.22,5.94 -60.78,-1.98 -9.47,-8.15 1.32,-4.4 -4.84,-1.76 z m -71.56,22.89 16.07,12.12 12.12,-14.53 -13.44,-11.01 -14.75,13.42 z m 131.02,61.66 12.54,-11.45 13.44,7.49 7.92,60.77 20.04,11.46 21.14,-12.56 10.36,-29.94 -0.45,-33.7 -5.29,-16.29 -26.64,-3.75 0.66,6.39 18.28,10.79 8.81,22.46 -5.51,25.98 -26.65,12.78 -8.14,-2.2 -5.07,-66.5 -14.75,-10.14 -15.63,12.78 -7.93,10.13 -11.67,-13 -22.68,-7.04 -25.54,11.23 -9.91,21.36 1.32,25.1 6.82,10.8 -3.96,29.94 12.55,-0.67 -1.98,-24.87 13.21,6.6 22.9,-2.2 17.18,-12.55 6.83,-25.33 -2.2,-13.87 z m -7.71,29.51 -13,7.04 -24,0 -21.35,-14.31 -2.65,-11.45 6.61,-12.98 22.24,-7.5 20.04,3.53 14.52,11.67 1.77,10.35 -4.18,13.65 z m -50.65,51.96 -4.84,15.64 -9.26,12.11 2.43,2.86 16.74,-2.2 -10.57,14.09 -7.93,26.64 10.79,18.95 21.36,5.28 58.57,-1.1 8.37,7.05 1.32,3.08 4.4,0.22 -1.98,-18.71 2.43,-20.05 -5.51,-0.66 -1.76,7.49 -9.48,5.95 -56.58,-0.23 -18.28,-10.57 -1.1,-17.39 12.55,-27.09 -0.44,6.39 64.52,0.22 9.24,6.39 1.55,8.36 3.52,-0.65 -0.44,-23.13 0.66,-18.27 -3.74,-1.33 -2.65,6.83 -11.01,6.17 -60.99,0 -9.25,-7.93 1.1,-2.64 -3.74,-1.77 z m 24.44,165.37 -13.43,-0.44 -10.13,-5.5 -5.07,-13.66 11.46,-12.99 8.15,5.72 9.47,-11.45 -9.91,-11 -25.99,28.62 -1.32,22.24 21.14,14.09 59.9,-2.2 14.08,10.14 -0.44,5.28 4.85,1.1 4.63,-21.58 -9.04,-9.47 -5.72,3.08 10.57,-12.33 4.41,-18.27 -10.57,-20.92 -29.29,-1.76 -12.99,16.07 -13.21,40.74 -1.55,-5.51 z m 24.01,-36.11 22.02,-0.44 9.91,12.11 1.1,12.77 -9.25,12.33 -38.76,-1.76 14.98,-35.01 z m -117.15,77.51 -2.42,12.77 -6.83,10.79 2.2,5.06 104.82,-4.4 46.24,1.1 9.68,6.6 1.33,7.71 5.51,0 -2.87,-22.02 1.76,-22.45 -5.73,-0.23 -0.43,8.37 -12.99,6.39 -127.28,-0.89 -6.83,-7.48 -6.16,-1.32 z m 11.01,120 -5.29,0 1.33,18.94 -2.43,33.25 4.41,31.05 17.61,22.68 29.29,2.64 25.1,-16.29 11.67,-29.73 -0.21,-23.78 42.27,-0.22 16.08,10.13 3.52,14.09 5.06,-0.44 -2.42,-31.49 3.53,-31.04 -6.61,-0.44 -2.43,11.89 -14.75,9.9 -112.96,-1.1 -12.77,-12.11 0,-7.93 z m 76.41,38.76 0.66,18.72 -13.21,25.1 -26.42,6.39 -24.67,-9.25 -11.23,-23.34 -2.42,-24.45 5.06,7.27 72.23,-0.44 z m -19.16,85.65 -3.3,11.67 -9.25,13.66 2.64,2.86 18.72,-1.77 13.21,-3.3 -27.08,18.5 -6.83,13.66 13,11.45 12.98,-12.78 -9.91,-8.58 9.91,-13.44 18.06,-4.4 41.62,-0.44 9.91,6.83 3.3,12.11 3.74,0.22 -1.98,-25.77 2.86,-20.91 -4.62,-0.22 -2.65,8.15 -11.66,5.28 -60.56,-1.98 -7.7,-7.27 0,-3.3 -4.41,-0.23 z m -7.49,148.42 13,18.06 27.53,9.25 30.82,-4.85 21.57,-17.17 7.06,-28.63 -4.85,-29.29 -19.16,-20.92 -30.39,-4.18 -35.01,12.55 -14.09,27.3 0.44,26.65 3.08,11.23 z m 22.24,-54.39 38.32,-4.62 25.11,11.66 9.46,19.17 -2.86,19.37 -20.04,11.89 -33.91,5.72 -25.54,-8.14 -10.35,-16.52 0.66,-20.92 19.15,-17.61 z m -13.43,172.42 10.35,-11.46 -14.97,-17.39 0,-17.84 15.63,-13.87 25.99,-2.86 27.96,11.01 13.21,20.03 -1.31,18.07 -8.6,12.76 1.99,3.09 12.11,-9.25 8.81,-24.01 -4.41,-25.76 -22.9,-20.92 -35.45,-2.64 -31.93,21.14 -10.35,31.05 2.86,19.15 11.01,9.7 z m -13.65,43.81 1.76,22.02 12.33,16.96 28.85,6.61 7.48,-72.45 2.43,8.59 3.74,-1.1 20.92,9.46 14.31,22.68 -4.4,20.04 -13.88,10.57 5.29,3.96 21.58,-21.35 4.85,-19.83 -8.6,-26.19 -31.26,-17.41 -36.11,5.73 -22.69,17.84 -6.6,13.87 z m 36.77,27.31 -22.46,-4.19 -9.47,-16.29 4.19,-13.88 9.25,-8.58 25.1,-2.87 -6.61,45.81 z m -7.27,86.98 -0.65,-4.19 -14.54,-4.62 -8.8,-12.99 2.86,-12.11 12.77,-5.51 13.21,5.28 26.2,34.57 16.3,4.19 19.38,-8.81 8.37,-19.81 -2.21,-22.25 -6.16,-10.13 -25.33,-1.32 1.33,3.97 17.61,6.38 9.47,14.54 -3.75,16.73 -19.37,4.84 -13.43,-10.12 -18.28,-29.52 -20.48,-4.17 -16.52,9.46 -7.25,17.84 0.65,9.91 6.6,17.17 22.02,0.67 z m 0,76.84 -0.65,-4.18 -14.54,-4.62 -8.8,-12.99 2.86,-12.11 12.77,-5.51 13.21,5.28 26.2,34.57 16.3,4.19 19.38,-8.81 8.37,-19.82 -2.21,-22.24 -6.16,-10.13 -25.33,-1.32 1.33,3.97 17.61,6.38 9.47,14.54 -3.75,16.73 -19.37,4.84 -13.43,-10.13 -18.28,-29.51 -20.48,-4.18 -16.52,9.47 -7.25,17.83 0.65,9.91 6.6,17.18 22.02,0.66 z m -17.83,18.06 -5.07,16.29 -7.93,14.1 2.65,3.96 86.53,-3.52 9.48,7.7 3.74,6.39 4.19,-0.66 -2.87,-20.48 1.1,-23.78 -5.73,1.1 -1.1,9.25 -11.22,5.94 -60.78,-1.98 -9.47,-8.14 1.32,-4.41 -4.84,-1.76 z m -71.56,22.9 16.07,12.11 12.12,-14.53 -13.44,-11.01 -14.75,13.43 z m 72.66,32.81 -4.84,15.64 -9.26,12.11 2.43,2.85 16.74,-2.2 -10.57,14.1 -7.93,26.64 10.79,18.94 21.36,5.28 58.57,-1.1 8.37,7.05 1.32,3.08 4.4,0.22 -1.98,-18.71 2.43,-20.05 -5.51,-0.66 -1.76,7.5 -9.48,5.94 -56.58,-0.22 -18.28,-10.57 -1.1,-17.4 12.55,-27.09 -0.44,6.4 64.52,0.21 9.24,6.39 1.55,8.36 3.52,-0.65 -0.44,-23.12 0.66,-18.28 -3.74,-1.32 -2.65,6.82 -11.01,6.17 -60.99,0 -9.25,-7.93 1.1,-2.64 -3.74,-1.76 z m 58.36,141.15 12.54,-11.46 13.44,7.49 7.92,60.77 20.04,11.46 21.14,-12.56 10.36,-29.94 -0.45,-33.69 -5.29,-16.29 -26.64,-3.75 0.66,6.39 18.28,10.78 8.81,22.46 -5.51,25.99 -26.65,12.77 -8.14,-2.2 -5.07,-66.5 -14.75,-10.13 -15.63,12.77 -7.93,10.13 -11.67,-13 -22.68,-7.04 -25.54,11.24 -9.91,21.35 1.32,25.1 6.82,10.8 -3.96,29.94 12.55,-0.66 -1.98,-24.88 13.21,6.61 22.9,-2.21 17.18,-12.55 6.83,-25.33 -2.2,-13.86 z m -7.71,29.5 -13,7.04 -24,0 -21.35,-14.31 -2.65,-11.45 6.61,-12.99 22.24,-7.49 20.04,3.53 14.52,11.67 1.77,10.35 -4.18,13.65"
             id="path102"
             style="fill:#6e6700;fill-opacity:1;fill-rule:nonzero;stroke:none" /></g></g><g
         id="g104"><g
           clip-path="url(#clipPath108)"
           id="g106"><path
             d="m 2417.18,2153.76 16.02,1.49 -0.82,-4.96 -13.55,-2.97 -13.22,-6.11 -6.44,-19.82 5.96,-25.92 20.64,-17.68 29.23,-5.78 26.42,3.8 20.48,17.67 9.08,23.62 -2.97,17.51 -16.85,16.18 -15.02,4.79 1.15,3.63 31.38,-8.75 5.62,-18 1.65,-23.78 -10.07,-28.9 -18.51,-19.82 -29.56,-6.78 -28.24,5.62 -22.46,15.85 -10.73,25.77 -1.33,32.53 9.59,19.66 12.55,1.15 z m 21.63,68.04 9.74,13.54 20.65,6.94 23.12,-3.64 16.19,-12.87 5.28,-21.47 -3.63,-21.97 -14.37,-15.69 -22.79,-3.14 -26.26,9.42 -10.57,20.47 0.33,19.99 2.31,8.42 z m 16.69,-40.8 28.72,-3.46 18.83,8.75 7.11,14.37 -2.15,14.54 -15.03,8.92 -25.43,4.29 -19.16,-6.12 -7.76,-12.38 0.49,-15.69 14.38,-13.22 z m -10.74,69.7 -3.64,11.72 -6.93,9.08 1.81,2.16 12.55,-1.66 -7.92,10.57 -5.95,19.98 8.09,14.21 16.03,3.96 43.93,-0.82 6.27,5.28 1,2.31 3.3,0.17 -1.49,-14.04 1.82,-15.03 -4.13,-0.5 -1.33,5.62 -7.1,4.46 -42.44,-0.17 -13.71,-7.92 -0.82,-13.05 9.41,-20.32 -0.33,4.79 48.39,0.17 6.94,4.79 1.15,6.28 2.64,-0.5 -0.33,-17.34 0.5,-13.7 -2.81,-1 -1.98,5.12 -8.26,4.63 -45.75,0 -6.93,-5.95 0.83,-1.98 -2.81,-1.32 z m -8.09,80.75 1.31,13.05 -0.82,14.87 3.47,1.65 0.99,-6.95 6.77,-1.81 46.41,17.84 9.74,-1 -56.81,21.47 -6.93,-3.63 -0.67,-5.28 -4.95,0 3.14,13.54 -1.65,10.07 3.13,0.83 2.97,-6.77 75.64,-31.7 -9.9,-4.13 -59.96,-22.14 -6.93,-6.11 -0.99,-3.8 -3.96,0 z m -1.49,104.54 1.32,16.51 9.25,12.72 21.63,4.95 5.62,-54.33 1.81,6.44 2.81,-0.83 15.69,7.11 10.73,17 -3.3,15.04 -10.4,7.92 3.96,2.98 16.18,-16.03 3.65,-14.86 -6.45,-19.65 -23.46,-13.05 -27.07,4.3 -17.02,13.37 -4.95,10.41 z m 27.57,20.48 -16.84,-3.14 -7.1,-12.22 3.14,-10.41 6.94,-6.43 18.82,-2.15 -4.96,34.35 z m -24.93,36.16 -1.32,13.71 3.13,0 0.5,-2.97 5.28,-3.14 17.02,10.73 6.11,0.5 -22.3,11.89 -5.44,-0.83 -0.67,-3.96 -3.46,0.82 1.15,10.41 -1.15,11.89 3.13,0.66 0.33,-4.13 6.44,-8.75 23.62,-15.69 36.99,24.44 2.82,4.96 2.8,0.33 -0.83,-17.01 0.83,-14.2 -1.82,0 -3.8,5.28 -5.61,-0.5 -18.66,-8.75 -3.47,-0.33 21.8,-13.54 6.93,1.32 1.33,4.3 2.47,-0.83 -0.16,-11.9 0.99,-12.05 -3.14,0.17 -1.98,7.43 -7.43,8.58 -21.8,13.55 -35.34,-20.64 -2.81,-7.43 -3.14,0.32 0.66,15.36 z m -24.61,123.2 -16.51,28.24 -0.99,33.03 13.87,28.07 29.23,15.04 32.87,0 25.76,-12.73 15.69,-25.43 1.82,-25.42 -8.09,-25.94 -18.01,-19.15 -33.85,-8.26 -11.89,1.32 -29.9,11.23 z m 5.62,13.71 34.35,-7.6 27.91,5.28 23.29,17.18 4.62,23.95 -11.56,23.94 -23.45,9.91 -30.88,0.83 -26.1,-9.74 -13.71,-12.06 -4.13,-17.51 4.13,-17.18 15.53,-17 z m 23.28,103.04 -2.64,10.08 -5.28,8.59 1.31,2.15 9.91,-1.49 -10.07,18.66 2.32,19.65 14.2,14.37 24.28,3.96 21.47,-7.6 12.39,-16.35 3.79,-18.82 -1.49,-17.01 2.31,4.46 25.77,0.49 8.09,3.63 1.99,10.25 4.13,0 -2.32,-17.51 2.32,-18.66 -4.63,0.66 -2.64,6.93 -9.09,2.82 -86.86,-2.32 -5.13,-5.61 -4.13,-1.33 z m 11.4,20.48 29.72,-1.15 16.52,3.3 8.26,12.39 -2.48,16.68 -11.4,8.75 -21.96,2.81 -23.28,-9.91 -5.78,-18 8.26,-18.34 2.14,3.47 z m -15.03,86.05 0.33,12.22 8.76,0.99 0.82,-14.21 31.7,0.17 20.48,1.98 5.62,4.46 -2.98,7.92 3.48,1.16 7.92,-10.73 -3.14,-13.05 -13.04,-4.29 -48.72,0.65 -2.14,3.97 0.16,-14.04 -2.81,-1.81 -22.63,22.45 0.5,3.31 15.69,-1.15 z m 5.45,19.15 -3.8,12.22 -5.94,10.57 1.98,2.97 64.9,-2.64 7.1,5.78 2.81,4.79 3.15,-0.5 -2.16,-15.36 0.83,-17.83 -4.29,0.83 -0.83,6.93 -8.42,4.46 -45.59,-1.48 -7.1,-6.12 1,-3.3 -3.64,-1.32 z m -53.67,17.17 12.05,9.08 9.08,-10.9 -10.07,-8.25 -11.06,10.07 z m 49.54,35.67 -5.77,6.28 -0.67,2.48 10.08,0.32 7.93,-3.46 -8.92,9.58 -6.45,15.52 2.48,16.18 10.57,7.94 -8.92,10.4 -5.11,15.52 4.78,14.7 15.52,7.1 42.78,0 8.76,2.64 2.64,5.29 3.63,1.16 -1.66,-14.04 1.66,-19.16 -3.63,0 -1.33,8.43 -10.24,4.29 -37.82,-1.32 -13.37,-6.94 -0.17,-18.99 9.41,-14.04 -0.98,5.45 43.93,0.33 7.43,2.14 1.81,6.12 4.13,0 -0.83,-14.04 1.83,-17.01 -3.8,0.82 -0.99,4.8 -6.94,5.61 -45.25,-0.99 -10.08,-9.08 0.5,-18.17 9.74,-12.06 -0.98,4.96 44.25,-0.5 7.43,3.96 1.33,6.45 5.28,0.66 -2.32,-16.19 1.66,-15.35 -3.13,-1 -1.49,5.29 -6.61,5.45 -49.05,-1.32 -5.61,-7.11 -3.14,-1.31 -4.3,12.21 z m 4.13,118.25 -3.8,12.21 -5.94,10.58 1.98,2.97 64.9,-2.64 7.1,5.78 2.81,4.78 3.15,-0.49 -2.16,-15.36 0.83,-17.83 -4.29,0.83 -0.83,6.93 -8.42,4.45 -45.59,-1.47 -7.1,-6.12 1,-3.31 -3.64,-1.31 z m -53.67,17.17 12.05,9.08 9.08,-10.9 -10.07,-8.25 -11.06,10.07 z m 48.72,53.67 -1.16,31.54 67.05,-42.6 3.64,-6.28 -2.32,33.19 -6.28,10.58 -13.53,4.95 0.32,3.47 25.77,-6.61 -0.66,-40.29 1.98,-21.64 -68.87,43.94 -2.47,7.09 1.15,-32.69 5.29,-7.77 11.56,-3.3 -0.34,-2.32 -21.63,1.66 0.5,27.08 z m 24.11,79.93 -10.07,-0.33 -7.61,-4.13 -3.79,-10.24 8.59,-9.74 6.11,4.3 7.1,-8.6 -7.44,-8.25 -19.48,21.46 -1,16.69 15.87,10.56 44.92,-1.64 10.57,7.6 -0.34,3.95 3.64,0.83 3.47,-16.18 -6.77,-7.1 -4.3,2.31 7.92,-9.25 3.31,-13.71 -7.92,-15.69 -21.97,-1.31 -9.75,12.05 -9.91,30.55 -1.15,-4.13 z m 18,-27.08 16.52,-0.33 7.43,9.08 0.83,9.59 -6.94,9.24 -29.07,-1.32 11.23,-26.26 z m -42.61,77.45 0.33,12.22 8.76,0.99 0.82,-14.2 31.7,0.17 20.48,1.97 5.62,4.47 -2.98,7.92 3.48,1.16 7.92,-10.73 -3.14,-13.05 -13.04,-4.29 -48.72,0.65 -2.14,3.96 0.16,-14.03 -2.81,-1.82 -22.63,22.46 0.5,3.3 15.69,-1.15 z m 5.45,19.16 -3.8,12.21 -5.94,10.57 1.98,2.98 64.9,-2.64 7.1,5.78 2.81,4.78 3.15,-0.49 -2.16,-15.36 0.83,-17.83 -4.29,0.83 -0.83,6.93 -8.42,4.45 -45.59,-1.48 -7.1,-6.11 1,-3.31 -3.64,-1.31 z m -53.67,17.17 12.05,9.08 9.08,-10.9 -10.07,-8.25 -11.06,10.07 z m 48.55,81.42 9.74,13.54 20.65,6.94 23.12,-3.64 16.19,-12.87 5.28,-21.47 -3.63,-21.97 -14.37,-15.69 -22.79,-3.14 -26.26,9.42 -10.57,20.47 0.33,19.99 2.31,8.42 z m 16.69,-40.79 28.72,-3.47 18.83,8.75 7.11,14.37 -2.15,14.54 -15.03,8.91 -25.43,4.3 -19.16,-6.12 -7.76,-12.39 0.49,-15.68 14.38,-13.21 z m -10.74,69.69 -3.64,11.72 -6.93,9.09 1.81,2.14 12.55,-1.65 -7.92,10.58 -5.95,19.98 8.09,14.2 16.03,3.96 43.93,-0.82 6.27,5.28 1,2.31 3.3,0.16 -1.49,-14.03 1.82,-15.03 -4.13,-0.5 -1.33,5.62 -7.1,4.46 -42.44,-0.17 -13.71,-7.92 -0.82,-13.05 9.41,-20.32 -0.33,4.8 48.39,0.16 6.94,4.79 1.15,6.28 2.64,-0.5 -0.33,-17.34 0.5,-13.7 -2.81,-1 -1.98,5.13 -8.26,4.61 -45.75,0 -6.93,-5.94 0.83,-1.98 -2.81,-1.32"
             id="path112"
             style="fill:#6e6100;fill-opacity:1;fill-rule:nonzero;stroke:none" /></g></g></g></g></svg>